<svg width="1697" height="241" viewBox="0 0 1697 241" fill="none" xmlns="http://www.w3.org/2000/svg">
<path d="M65.76 223.12C52.88 223.12 41.4933 220.507 31.6 215.28C21.7067 210.053 13.96 202.68 8.35999 193.16C2.94666 183.453 0.23999 171.973 0.23999 158.72C0.23999 142.853 3.59999 127.547 10.32 112.8C17.04 97.8667 26.1867 84.1467 37.76 71.64C49.3333 59.1333 62.3067 48.2133 76.68 38.88C91.24 29.36 106.267 21.9867 121.76 16.76C137.44 11.5333 152.653 8.91998 167.4 8.91998C181.773 8.91998 193.533 10.88 202.68 14.8C211.827 18.5333 218.547 23.48 222.84 29.64C227.133 35.8 229.28 42.52 229.28 49.8C229.28 56.7067 227.507 63.6133 223.96 70.52C220.413 77.4267 215.187 83.7733 208.28 89.56C201.56 95.16 193.44 99.7333 183.92 103.28C174.4 106.64 163.76 108.32 152 108.32C147.52 108.32 142.293 107.853 136.32 106.92C130.347 105.987 124.467 104.4 118.68 102.16C112.893 99.7333 108.04 96.56 104.12 92.64C100.387 88.72 98.52 83.68 98.52 77.52V77.24C98.52 75.3733 99.4533 74.44 101.32 74.44C103.187 74.44 104.12 75.28 104.12 76.96C104.867 83.3067 107.853 88.3467 113.08 92.08C118.493 95.8133 124.747 98.52 131.84 100.2C139.12 101.88 145.84 102.72 152 102.72C166.373 102.72 178.88 100.013 189.52 94.6C200.347 89.1867 208.653 82.4667 214.44 74.44C220.413 66.2267 223.4 58.0133 223.4 49.8C223.4 43.4533 221.44 37.6667 217.52 32.44C213.787 27.0267 207.813 22.7333 199.6 19.56C191.387 16.2 180.653 14.52 167.4 14.52C153.213 14.52 138.56 17.1333 123.44 22.36C108.32 27.4 93.76 34.4933 79.76 43.64C65.76 52.7867 53.16 63.4267 41.96 75.56C30.9467 87.6933 22.1733 100.853 15.64 115.04C9.10666 129.04 5.83999 143.6 5.83999 158.72C5.83999 176.827 11.2533 191.2 22.08 201.84C33.0933 212.293 47.6533 217.52 65.76 217.52C77.3333 217.52 88.72 215.747 99.92 212.2C111.307 208.467 121.573 203.053 130.72 195.96C139.867 188.68 147.053 179.72 152.28 169.08C152.84 167.96 153.493 166.28 154.24 164.04C155.173 161.8 156.013 159.56 156.76 157.32C157.507 155.08 157.88 153.587 157.88 152.84C157.88 151.907 157.787 151.347 157.6 151.16C157.6 150.787 157.6 150.6 157.6 150.6C157.227 150.227 156.48 150.04 155.36 150.04C152.56 150.04 150.413 151.16 148.92 153.4C147.427 155.453 146.213 157.973 145.28 160.96C144.347 163.76 143.04 166.28 141.36 168.52C136.693 174.867 130.253 181.027 122.04 187C114.013 192.787 105.427 197.547 96.28 201.28C87.1333 205.013 78.4533 206.88 70.24 206.88C55.3067 206.88 43.5467 202.493 34.96 193.72C26.56 184.76 22.36 172.907 22.36 158.16C22.36 145.467 25.3467 132.68 31.32 119.8C37.2933 106.92 45.2267 94.6933 55.12 83.12C65.2 71.5467 76.4933 61.28 89 52.32C101.507 43.1733 114.293 35.9867 127.36 30.76C140.613 25.5333 153.307 22.92 165.44 22.92C183.547 22.92 196.427 25.72 204.08 31.32C211.92 36.7333 215.84 43.1733 215.84 50.64C215.84 55.8667 214.253 61.1867 211.08 66.6C207.907 71.8267 203.427 76.68 197.64 81.16C192.04 85.64 185.507 89.28 178.04 92.08C170.573 94.88 162.64 96.28 154.24 96.28C151.253 96.28 147.24 95.72 142.2 94.6C137.16 93.48 132.027 91.8933 126.8 89.84C121.76 87.7867 117.467 85.1733 113.92 82C110.373 78.8267 108.6 75.1867 108.6 71.08V70.52C108.6 68.84 109.533 68 111.4 68C113.08 68 114.013 68.7467 114.2 70.24C114.76 73.04 116.533 75.6533 119.52 78.08C122.507 80.5067 126.147 82.7467 130.44 84.8C134.733 86.6667 139.027 88.16 143.32 89.28C147.613 90.2133 151.253 90.68 154.24 90.68C164.133 90.68 173.28 88.6267 181.68 84.52C190.267 80.4133 197.173 75.28 202.4 69.12C207.627 62.96 210.24 56.8933 210.24 50.92C210.24 44.9467 206.787 39.72 199.88 35.24C193.16 30.76 181.68 28.52 165.44 28.52C153.867 28.52 141.733 31.04 129.04 36.08C116.347 41.12 104.027 48.0267 92.08 56.8C80.1333 65.5733 69.3067 75.56 59.6 86.76C49.8933 97.7733 42.1467 109.44 36.36 121.76C30.76 134.08 27.96 146.213 27.96 158.16C27.96 171.227 31.6933 181.68 39.16 189.52C46.6267 197.36 56.9867 201.28 70.24 201.28C75.84 201.28 82.0933 200.16 89 197.92C96.0933 195.493 103.093 192.32 110 188.4C116.907 184.293 123.067 179.72 128.48 174.68C133.893 169.64 137.72 164.507 139.96 159.28C141.64 155.547 143.32 152.187 145 149.2C146.68 146.027 150.133 144.44 155.36 144.44C160.773 144.44 163.48 147.24 163.48 152.84C163.48 154.147 163.013 156.107 162.08 158.72C161.333 161.333 160.493 163.853 159.56 166.28C158.627 168.707 157.88 170.48 157.32 171.6C151.907 182.987 144.253 192.507 134.36 200.16C124.653 207.813 113.827 213.507 101.88 217.24C89.9333 221.16 77.8933 223.12 65.76 223.12Z" fill="white"/>
<path d="M469.443 154.8C467.577 154.8 466.643 153.867 466.643 152C466.643 150.133 467.483 149.2 469.163 149.2C480.737 148.267 491.937 145.933 502.763 142.2C513.777 138.28 523.67 133.24 532.443 127.08C541.403 120.92 548.497 113.733 553.723 105.52C558.95 97.12 561.563 88.0667 561.563 78.36C561.563 69.2133 559.417 61.56 555.123 55.4C551.017 49.24 545.323 44.2933 538.043 40.56C530.95 36.8267 523.017 34.0267 514.243 32.16C505.47 30.2933 496.417 29.08 487.083 28.52C477.937 27.7733 469.163 27.3067 460.763 27.12C444.15 26.7467 427.723 27.7733 411.483 30.2C395.43 32.44 380.497 35.8 366.683 40.28C353.057 44.76 341.39 50.08 331.683 56.24C322.163 62.4 315.63 69.2133 312.083 76.68C311.337 78.36 310.777 79.6667 310.403 80.6C310.03 81.5333 310.403 82 311.523 82C313.577 82 315.91 81.2533 318.523 79.76C321.137 78.08 323.097 76.5867 324.403 75.28C330.377 69.12 338.31 63.6133 348.203 58.76C358.097 53.9067 369.11 49.8 381.243 46.44C393.563 43.08 406.257 40.56 419.323 38.88C432.577 37.0133 445.457 36.08 457.963 36.08C468.79 36.08 479.243 36.8267 489.323 38.32C499.59 39.8133 508.737 42.3333 516.763 45.88C524.79 49.24 531.137 53.72 535.803 59.32C540.657 64.92 543.083 71.8267 543.083 80.04C543.083 89.9333 540.097 98.8 534.123 106.64C528.15 114.48 520.123 121.107 510.043 126.52C500.15 131.933 489.043 136.04 476.723 138.84C464.403 141.64 451.803 143.04 438.923 143.04H438.643C436.963 143.04 436.123 142.107 436.123 140.24C436.123 138.373 437.057 137.44 438.923 137.44C451.243 136.88 463.19 135.2 474.763 132.4C486.523 129.6 497.07 125.773 506.403 120.92C515.923 116.067 523.39 110.28 528.803 103.56C534.403 96.6533 537.203 89 537.203 80.6C537.203 71.4533 533.75 64.08 526.843 58.48C519.937 52.6933 510.51 48.4933 498.563 45.88C486.803 43.08 473.363 41.68 458.243 41.68C445.737 41.68 433.043 42.52 420.163 44.2C407.283 45.88 394.963 48.4 383.203 51.76C371.443 54.9333 360.803 58.8533 351.283 63.52C341.763 68.1867 334.11 73.4133 328.323 79.2C326.083 81.44 323.19 83.4 319.643 85.08C316.283 86.5733 313.297 87.32 310.683 87.32C306.763 87.32 304.803 85.64 304.803 82.28C304.803 80.04 305.55 77.4267 307.043 74.44C310.963 66.04 318.057 58.48 328.323 51.76C338.59 45.04 350.817 39.44 365.003 34.96C379.377 30.2933 394.777 26.84 411.203 24.6C427.63 22.1733 444.15 21.1467 460.763 21.52C468.603 21.7067 477.19 22.1733 486.523 22.92C496.043 23.48 505.563 24.7867 515.083 26.84C524.603 28.8933 533.283 31.9733 541.123 36.08C548.963 40 555.31 45.32 560.163 52.04C565.017 58.76 567.443 67.3467 567.443 77.8C567.443 89 564.643 99.2667 559.043 108.6C553.443 117.933 545.883 126.053 536.363 132.96C527.03 139.867 516.577 145.28 505.003 149.2C493.43 152.933 481.67 154.8 469.723 154.8H469.443ZM286.603 224.52C269.803 224.52 255.99 222.187 245.163 217.52C234.523 212.853 226.683 206.693 221.643 199.04C216.603 191.387 214.083 183.173 214.083 174.4C214.083 165.44 216.323 156.48 220.803 147.52C225.47 138.56 232.097 130.347 240.683 122.88C249.457 115.227 259.817 109.16 271.763 104.68C283.897 100.013 297.523 97.68 312.643 97.68C317.123 97.68 322.817 98.24 329.723 99.36C336.817 100.48 343.91 102.347 351.003 104.96C358.097 107.387 364.07 110.653 368.923 114.76C373.963 118.867 376.67 123.907 377.043 129.88C377.23 133.427 376.297 136.413 374.243 138.84C372.19 141.267 370.043 142.48 367.803 142.48C365.003 142.48 363.23 140.707 362.483 137.16C361.923 134.733 358.937 131.933 353.523 128.76C348.11 125.4 341.483 122.507 333.643 120.08C325.803 117.467 317.683 116.16 309.283 116.16C299.203 116.16 289.87 117.84 281.283 121.2C272.883 124.56 265.603 128.947 259.443 134.36C253.283 139.773 248.43 145.747 244.883 152.28C241.523 158.627 239.843 164.88 239.843 171.04C239.843 180 243.763 187.747 251.603 194.28C259.63 200.813 272.697 204.08 290.803 204.08C301.817 204.08 313.017 201.187 324.403 195.4C335.79 189.613 346.897 182.147 357.723 173C368.737 163.667 379.003 153.773 388.523 143.32C398.043 132.867 406.443 122.88 413.723 113.36C417.083 109.067 421.003 103.933 425.483 97.96C430.15 91.9867 434.91 85.7333 439.763 79.2C444.803 72.6667 449.47 66.5067 453.763 60.72C458.243 54.9333 461.79 49.9867 464.403 45.88C464.963 44.9467 465.803 44.48 466.923 44.48C467.857 44.48 468.603 44.9467 469.163 45.88C469.723 46.6267 469.63 47.56 468.883 48.68C466.083 52.7867 462.537 57.8267 458.243 63.8C453.95 69.7733 449.283 76.0267 444.243 82.56C439.39 88.9067 434.63 95.16 429.963 101.32C425.483 107.293 421.563 112.427 418.203 116.72C412.417 124.187 405.79 132.213 398.323 140.8C391.043 149.2 383.11 157.507 374.523 165.72C365.937 173.747 356.977 181.12 347.643 187.84C338.31 194.373 328.79 199.693 319.083 203.8C309.563 207.72 300.137 209.68 290.803 209.68C277.55 209.68 266.723 207.907 258.323 204.36C249.923 200.813 243.763 196.147 239.843 190.36C236.11 184.573 234.243 178.227 234.243 171.32C234.243 164.413 236.017 157.413 239.563 150.32C243.297 143.04 248.523 136.413 255.243 130.44C261.963 124.467 269.897 119.707 279.043 116.16C288.19 112.427 298.27 110.56 309.283 110.56C315.443 110.56 321.79 111.307 328.323 112.8C334.857 114.293 340.923 116.347 346.523 118.96C352.31 121.387 357.07 124.093 360.803 127.08C364.723 130.067 367.057 133.053 367.803 136.04C367.803 136.227 367.803 136.413 367.803 136.6C367.99 136.787 368.083 136.88 368.083 136.88C369.203 136.507 370.043 135.573 370.603 134.08C371.163 132.4 371.443 131.187 371.443 130.44C371.257 125.4 368.737 121.2 363.883 117.84C359.217 114.293 353.617 111.493 347.083 109.44C340.55 107.2 334.11 105.613 327.763 104.68C321.417 103.747 316.377 103.28 312.643 103.28C298.643 103.28 285.857 105.427 274.283 109.72C262.897 114.013 253.097 119.613 244.883 126.52C236.67 133.427 230.323 141.08 225.843 149.48C221.55 157.693 219.403 165.907 219.403 174.12C219.403 182.147 221.737 189.613 226.403 196.52C231.07 203.24 238.35 208.653 248.243 212.76C258.137 216.867 270.923 218.92 286.603 218.92C305.457 218.92 322.817 215.28 338.683 208C354.737 200.72 369.483 191.107 382.923 179.16C396.55 167.027 409.057 153.493 420.443 138.56C432.017 123.627 442.843 108.413 452.923 92.92C463.003 77.4267 472.523 62.8667 481.483 49.24C482.043 48.3067 482.79 47.84 483.723 47.84C484.657 47.84 485.497 48.3067 486.243 49.24C486.99 50.1733 486.99 51.2 486.243 52.32C476.91 66.5067 467.11 81.5333 456.843 97.4C446.763 113.08 435.843 128.48 424.083 143.6C412.323 158.533 399.537 172.16 385.723 184.48C371.91 196.613 356.79 206.32 340.363 213.6C324.123 220.88 306.203 224.52 286.603 224.52ZM511.443 222.28C503.043 222.28 495.203 220.32 487.923 216.4C480.643 212.667 474.203 207.72 468.603 201.56C463.003 195.213 458.617 188.4 455.443 181.12C452.27 173.653 450.683 166.467 450.683 159.56V159C450.683 157.32 451.617 156.48 453.483 156.48C455.163 156.48 456.097 157.32 456.283 159C457.217 165.533 459.177 172.16 462.163 178.88C465.15 185.6 469.07 191.853 473.923 197.64C478.963 203.24 484.657 207.813 491.003 211.36C497.35 214.907 504.163 216.68 511.443 216.68C517.23 216.68 523.763 214.72 531.043 210.8C538.323 206.88 545.603 201.933 552.883 195.96C560.35 189.8 567.163 183.453 573.323 176.92C579.67 170.387 584.71 164.507 588.443 159.28C589.003 158.347 589.75 157.88 590.683 157.88C591.803 157.88 592.643 158.347 593.203 159.28C593.95 160.213 593.857 161.333 592.923 162.64C588.817 168.24 583.497 174.493 576.963 181.4C570.43 188.12 563.337 194.653 555.683 201C548.03 207.16 540.377 212.2 532.723 216.12C525.07 220.227 517.977 222.28 511.443 222.28ZM506.403 240.48C494.457 240.48 483.723 238.333 474.203 234.04C464.87 229.933 456.75 224.427 449.843 217.52C443.123 210.613 437.523 203.147 433.043 195.12C428.563 187.093 425.11 179.253 422.683 171.6C422.683 171.413 422.59 171.32 422.403 171.32C422.403 171.133 422.403 170.947 422.403 170.76C422.403 168.893 423.43 167.96 425.483 167.96C426.603 167.96 427.443 168.613 428.003 169.92C430.243 177.2 433.51 184.667 437.803 192.32C442.097 199.973 447.417 207.067 453.763 213.6C460.297 219.947 467.857 225.08 476.443 229C485.217 232.92 495.203 234.88 506.403 234.88C516.67 234.88 525.817 233.2 533.843 229.84C541.87 226.667 549.337 222.373 556.243 216.96C563.15 211.547 569.963 205.667 576.683 199.32C577.243 198.76 577.897 198.48 578.643 198.48C579.763 198.48 580.603 199.04 581.163 200.16C581.91 201.28 581.723 202.307 580.603 203.24C573.51 209.96 566.23 216.12 558.763 221.72C551.483 227.507 543.643 232.08 535.243 235.44C526.843 238.8 517.23 240.48 506.403 240.48Z" fill="white"/>
<path d="M602.776 105.8C601.656 105.8 600.816 105.24 600.256 104.12C595.029 93.8533 592.416 83.4933 592.416 73.04C592.416 63.52 594.376 54.4667 598.296 45.88C602.216 37.1067 607.629 29.36 614.536 22.64C621.443 15.92 629.376 10.6 638.336 6.68C647.483 2.75999 657.189 0.799988 667.456 0.799988C676.976 0.799988 685.749 2.10665 693.776 4.71999C701.989 7.33332 709.923 10.4133 717.576 13.96C725.416 17.32 733.443 20.3067 741.656 22.92C750.056 25.5333 759.016 26.84 768.536 26.84C775.069 26.84 780.576 26.28 785.056 25.16C789.536 23.8533 792.989 22.36 795.416 20.68C797.096 19.56 798.776 18.8133 800.456 18.44C802.136 17.88 803.629 17.6 804.936 17.6C807.736 17.6 809.976 18.44 811.656 20.12C813.336 21.8 814.176 23.8533 814.176 26.28C814.176 28.3333 813.523 30.48 812.216 32.72C810.909 34.7733 808.763 36.64 805.776 38.32C799.803 41.8667 793.363 44.48 786.456 46.16C779.549 47.6533 772.549 48.4 765.456 48.4C753.696 48.4 742.403 46.5333 731.576 42.8C724.109 40.3733 716.923 37.76 710.016 34.96C703.109 31.9733 696.109 29.4533 689.016 27.4C682.109 25.16 674.549 24.04 666.336 24.04C665.216 24.04 664.096 24.04 662.976 24.04C661.856 24.04 660.643 24.1333 659.336 24.32C650.936 25.0667 643.469 27.7733 636.936 32.44C630.403 37.1067 625.269 43.08 621.536 50.36C617.803 57.4533 615.936 65.3867 615.936 74.16C615.936 82.3733 617.709 90.5867 621.256 98.8C621.443 98.9867 621.629 99.36 621.816 99.92C622.003 100.293 622.096 100.667 622.096 101.04C622.096 102.907 621.069 103.84 619.016 103.84C618.083 103.84 617.336 103.28 616.776 102.16C612.669 92.8267 610.616 83.4933 610.616 74.16C610.616 64.64 612.576 55.8667 616.496 47.84C620.603 39.6267 626.296 32.9067 633.576 27.68C640.856 22.4533 649.256 19.4667 658.776 18.72C660.269 18.5333 661.576 18.44 662.696 18.44C664.003 18.44 665.309 18.44 666.616 18.44C675.389 18.44 683.509 19.56 690.976 21.8C698.443 24.04 705.723 26.6533 712.816 29.64C719.909 32.6267 727.096 35.4267 734.376 38.04C741.656 40.4667 749.496 41.96 757.896 42.52C759.016 42.52 760.136 42.6133 761.256 42.8C762.376 42.8 763.496 42.8 764.616 42.8C772.456 42.8 779.643 41.96 786.176 40.28C792.709 38.6 798.309 36.36 802.976 33.56C806.709 31.5067 808.576 29.08 808.576 26.28C808.576 24.2267 807.363 23.2 804.936 23.2C802.883 23.2 800.736 23.9467 798.496 25.44C794.576 27.8667 790.096 29.64 785.056 30.76C780.016 31.88 774.789 32.44 769.376 32.44C763.403 32.44 757.336 31.88 751.176 30.76C745.203 29.64 739.789 28.24 734.936 26.56C727.283 23.9467 719.909 21.0533 712.816 17.88C705.723 14.7067 698.536 12 691.256 9.75999C684.163 7.51998 676.416 6.39998 668.016 6.39998C658.309 6.39998 649.163 8.26665 640.576 12C632.176 15.5467 624.803 20.4933 618.456 26.84C612.109 33 607.069 40.0933 603.336 48.12C599.789 55.96 598.016 64.2667 598.016 73.04C598.016 82.9333 600.443 92.4533 605.296 101.6C605.483 101.973 605.576 102.44 605.576 103C605.576 104.867 604.643 105.8 602.776 105.8ZM640.016 130.16C633.109 130.16 628.069 128.853 624.896 126.24C621.723 123.627 620.136 120.733 620.136 117.56C620.136 114.2 621.723 111.12 624.896 108.32C628.256 105.333 633.109 103.84 639.456 103.84C644.123 103.84 648.603 104.12 652.896 104.68C657.376 105.053 661.763 105.613 666.056 106.36C668.856 103.187 672.869 98.7067 678.096 92.92C683.323 87.1333 688.829 81.16 694.616 75C700.589 68.6533 706.189 62.96 711.416 57.92C716.829 52.88 721.029 49.4267 724.016 47.56C726.069 46.44 728.123 45.88 730.176 45.88C733.349 45.88 736.336 47 739.136 49.24C741.936 51.48 743.336 54 743.336 56.8C743.336 59.4133 742.029 61.7467 739.416 63.8C736.429 66.04 733.629 68.56 731.016 71.36C728.403 73.9733 725.603 76.8667 722.616 80.04C719.629 83.2133 716.269 86.76 712.536 90.68C708.989 94.4133 704.789 98.6133 699.936 103.28C699.376 103.84 698.723 104.12 697.976 104.12C696.856 104.12 696.016 103.56 695.456 102.44C694.896 101.32 695.083 100.293 696.016 99.36C702.549 93.2 709.176 86.2933 715.896 78.64C722.616 70.9867 729.243 64.5467 735.776 59.32C736.896 58.3867 737.456 57.4533 737.456 56.52C737.456 55.0267 736.616 53.8133 734.936 52.88C733.443 51.9467 731.763 51.48 729.896 51.48C728.776 51.48 727.749 51.76 726.816 52.32C723.829 54 719.723 57.4533 714.496 62.68C709.269 67.72 703.669 73.4133 697.696 79.76C691.723 86.1067 686.123 92.1733 680.896 97.96C675.856 103.56 671.936 107.947 669.136 111.12C668.576 111.68 667.736 111.96 666.616 111.96C662.323 111.4 657.936 110.84 653.456 110.28C648.976 109.72 644.309 109.44 639.456 109.44C635.163 109.44 631.803 110.28 629.376 111.96C626.949 113.64 625.736 115.507 625.736 117.56C625.736 119.427 626.856 121.107 629.096 122.6C631.523 123.907 635.163 124.56 640.016 124.56C641.883 124.56 642.816 125.493 642.816 127.36C642.816 129.227 641.883 130.16 640.016 130.16ZM645.056 217.52C632.363 217.52 623.496 215.467 618.456 211.36C613.416 207.253 610.896 202.027 610.896 195.68C610.896 190.453 612.109 184.853 614.536 178.88C616.963 172.907 619.949 166.933 623.496 160.96C627.229 154.987 631.056 149.387 634.976 144.16C638.896 138.933 642.256 134.547 645.056 131C645.616 130.253 646.269 129.88 647.016 129.88C647.949 129.88 648.789 130.44 649.536 131.56C650.283 132.493 650.189 133.427 649.256 134.36C645.896 138.467 642.256 143.227 638.336 148.64C634.603 154.053 630.963 159.653 627.416 165.44C624.056 171.04 621.256 176.547 619.016 181.96C616.963 187.187 615.936 191.76 615.936 195.68C615.936 202.027 618.923 206.32 624.896 208.56C630.869 210.8 637.589 211.92 645.056 211.92C651.963 211.92 659.896 211.64 668.856 211.08C677.816 210.52 687.149 209.587 696.856 208.28C706.749 206.973 716.363 205.387 725.696 203.52C735.029 201.467 743.616 199.04 751.456 196.24C753.136 195.68 754.909 194.28 756.776 192.04C758.829 189.613 759.483 187.467 758.736 185.6C758.736 185.6 758.549 185.6 758.176 185.6C757.989 185.413 757.709 185.32 757.336 185.32C756.403 185.32 754.909 185.693 752.856 186.44C749.683 187.747 744.363 189.24 736.896 190.92C729.429 192.6 721.029 194.28 711.696 195.96C702.363 197.453 693.216 198.76 684.256 199.88C675.296 200.813 667.736 201.28 661.576 201.28C653.549 201.28 647.949 199.88 644.776 197.08C641.603 194.28 640.016 190.733 640.016 186.44C640.016 181.587 641.323 176.267 643.936 170.48C646.736 164.693 650.096 159 654.016 153.4C657.936 147.613 661.576 142.573 664.936 138.28C668.483 133.8 671.096 130.627 672.776 128.76C673.336 128.2 674.083 127.92 675.016 127.92H685.376C691.536 127.92 698.909 127.827 707.496 127.64C716.269 127.453 725.416 127.08 734.936 126.52C744.456 125.96 753.416 125.12 761.816 124C770.403 122.88 777.496 121.48 783.096 119.8C784.216 119.427 785.896 118.587 788.136 117.28C790.376 115.973 792.336 114.387 794.016 112.52C795.883 110.653 796.629 108.787 796.256 106.92H795.136C794.763 106.92 794.203 107.013 793.456 107.2C792.896 107.2 792.056 107.387 790.936 107.76C785.149 109.813 777.776 111.307 768.816 112.24C760.043 113.173 750.616 113.827 740.536 114.2C730.643 114.387 721.123 114.48 711.976 114.48H687.336C685.469 114.48 684.536 113.547 684.536 111.68C684.536 109.813 685.469 108.88 687.336 108.88H712.256C721.216 108.88 730.549 108.787 740.256 108.6C749.963 108.227 759.109 107.573 767.696 106.64C776.469 105.707 783.563 104.307 788.976 102.44C791.216 101.693 793.269 101.32 795.136 101.32C799.616 101.32 801.856 103.373 801.856 107.48C801.856 110.467 800.363 113.733 797.376 117.28C794.576 120.827 790.376 123.44 784.776 125.12C778.989 126.987 771.709 128.48 762.936 129.6C754.163 130.72 744.923 131.56 735.216 132.12C725.696 132.68 716.549 133.053 707.776 133.24C699.003 133.427 691.536 133.52 685.376 133.52H676.416C672.123 138.373 667.549 143.973 662.696 150.32C658.029 156.667 654.016 163.107 650.656 169.64C647.296 175.987 645.616 181.68 645.616 186.72C645.616 189.333 646.363 191.293 647.856 192.6C649.536 193.907 651.869 194.84 654.856 195.4C655.789 195.587 656.816 195.773 657.936 195.96C659.056 195.96 660.269 195.96 661.576 195.96C667.363 195.96 674.643 195.493 683.416 194.56C692.189 193.44 701.149 192.133 710.296 190.64C719.629 188.96 727.936 187.28 735.216 185.6C742.683 183.92 747.909 182.52 750.896 181.4C753.696 180.28 756.029 179.72 757.896 179.72C760.323 179.72 762.003 180.373 762.936 181.68C764.056 182.987 764.616 184.573 764.616 186.44C764.616 189.053 763.589 191.853 761.536 194.84C759.669 197.827 756.963 199.973 753.416 201.28C745.389 204.08 736.523 206.507 726.816 208.56C717.296 210.613 707.589 212.293 697.696 213.6C687.803 214.907 678.283 215.84 669.136 216.4C660.176 217.147 652.149 217.52 645.056 217.52Z" fill="white"/>
<path d="M924.328 71.08C921.341 71.08 919.381 69.7733 918.448 67.16C917.701 64.5467 917.514 62.12 917.888 59.88C919.568 51.6667 923.954 44.6667 931.047 38.88C938.327 32.9067 947.381 28.0533 958.208 24.32C969.221 20.5867 981.261 17.7867 994.328 15.92C1007.39 14.0533 1020.74 13.12 1034.37 13.12C1036.23 13.12 1040.34 13.2133 1046.69 13.4C1053.03 13.4 1060.59 13.68 1069.37 14.24C1078.33 14.8 1087.47 15.7333 1096.81 17.04C1106.14 18.16 1114.91 19.84 1123.13 22.08C1131.34 24.32 1137.97 27.2133 1143.01 30.76C1148.23 34.12 1150.85 38.32 1150.85 43.36C1150.85 45.4133 1150.47 47.28 1149.73 48.96C1149.17 50.08 1148.33 50.64 1147.21 50.64C1146.46 50.64 1145.71 50.2667 1144.97 49.52C1144.41 48.7733 1144.31 47.84 1144.69 46.72C1145.06 46.16 1145.25 45.6 1145.25 45.04C1145.25 44.48 1145.25 43.92 1145.25 43.36C1145.25 39.44 1142.82 36.1733 1137.97 33.56C1133.11 30.76 1126.77 28.52 1118.93 26.84C1111.09 24.9733 1102.69 23.48 1093.73 22.36C1084.77 21.24 1076.09 20.4933 1067.69 20.12C1059.29 19.56 1052.01 19.1867 1045.85 19C1039.87 18.8133 1036.05 18.72 1034.37 18.72C1020.37 18.72 1007.02 19.6533 994.328 21.52C981.634 23.3867 970.247 26.0933 960.167 29.64C950.087 33.1867 941.781 37.5733 935.247 42.8C928.901 48.0267 924.981 54.0933 923.487 61C923.487 61.1867 923.394 61.4667 923.208 61.84C923.208 62.2133 923.208 62.5867 923.208 62.96C923.208 64.64 923.581 65.48 924.328 65.48C925.634 65.48 927.034 64.7333 928.528 63.24C930.208 61.7467 931.421 60.5333 932.167 59.6C941.314 50.2667 951.208 43.5467 961.848 39.44C972.488 35.1467 983.408 32.44 994.608 31.32C1005.81 30.2 1016.73 29.64 1027.37 29.64C1042.86 29.64 1055.55 30.2 1065.45 31.32C1075.34 32.2533 1083.27 33.4667 1089.25 34.96C1095.22 36.2667 1100.07 37.48 1103.81 38.6C1105.11 39.16 1105.77 40 1105.77 41.12C1105.77 42.0533 1105.39 42.8933 1104.65 43.64C1103.9 44.2 1103.06 44.3867 1102.13 44.2C1098.58 43.08 1093.91 41.8667 1088.13 40.56C1082.34 39.0667 1074.59 37.8533 1064.89 36.92C1055.18 35.8 1042.67 35.24 1027.37 35.24C1015.42 35.24 1004.03 35.8933 993.208 37.2C982.568 38.5067 972.301 41.3067 962.408 45.6C952.701 49.8933 943.274 56.6133 934.128 65.76C932.821 67.0667 931.328 68.28 929.648 69.4C928.154 70.52 926.381 71.08 924.328 71.08ZM864.968 224.52C858.061 224.52 850.688 223.68 842.848 222C835.194 220.507 827.914 218.08 821.008 214.72C814.288 211.173 808.781 206.6 804.487 201C800.194 195.213 798.047 188.12 798.047 179.72C798.047 169.827 800.474 160.68 805.328 152.28C809.994 143.88 816.341 136.32 824.367 129.6C832.581 122.88 841.821 117.187 852.088 112.52C862.354 107.667 873.088 104.027 884.288 101.6C895.674 98.9867 906.781 97.68 917.607 97.68C921.154 97.68 925.914 97.96 931.888 98.52C937.861 99.08 944.114 100.107 950.648 101.6C957.368 103.093 963.714 105.147 969.688 107.76C975.661 110.187 980.514 113.36 984.247 117.28C987.981 121.2 989.848 125.867 989.848 131.28C989.848 132.027 989.754 132.773 989.568 133.52C989.568 134.08 989.474 134.827 989.288 135.76C989.101 137.067 988.354 138.747 987.047 140.8C985.741 142.853 983.688 143.88 980.888 143.88C979.021 143.88 976.781 142.667 974.168 140.24C971.741 137.627 969.874 135.667 968.568 134.36C961.661 128.013 954.101 123.44 945.888 120.64C937.861 117.653 928.994 116.16 919.288 116.16C904.728 116.16 891.474 118.027 879.528 121.76C867.768 125.493 857.594 130.44 849.008 136.6C840.421 142.573 833.794 149.013 829.128 155.92C824.648 162.827 822.408 169.547 822.408 176.08C822.408 183.733 826.141 190.36 833.607 195.96C841.074 201.373 852.927 204.08 869.167 204.08C880.181 204.08 891.847 201.84 904.167 197.36C916.487 192.693 928.807 186.72 941.128 179.44C953.634 171.973 965.487 163.947 976.688 155.36C988.074 146.773 998.248 138.56 1007.21 130.72C1010.01 128.293 1014.21 124.84 1019.81 120.36C1025.59 115.693 1032.13 110.467 1039.41 104.68C1046.87 98.7067 1054.53 92.64 1062.37 86.48C1070.39 80.32 1078.05 74.3467 1085.33 68.56C1092.79 62.7733 1099.42 57.64 1105.21 53.16C1110.99 48.68 1115.29 45.32 1118.09 43.08C1118.46 42.7067 1119.02 42.52 1119.77 42.52C1121.63 42.52 1122.57 43.5467 1122.57 45.6C1122.57 46.3467 1122.19 47 1121.45 47.56C1118.65 49.8 1114.35 53.16 1108.57 57.64C1102.97 62.12 1096.43 67.2533 1088.97 73.04C1081.69 78.64 1074.03 84.6133 1066.01 90.96C1058.17 97.12 1050.51 103.093 1043.05 108.88C1035.77 114.667 1029.23 119.893 1023.45 124.56C1017.85 129.04 1013.65 132.493 1010.85 134.92C1001.89 142.76 991.714 151.067 980.328 159.84C968.941 168.427 956.901 176.547 944.208 184.2C931.514 191.667 918.728 197.827 905.848 202.68C893.154 207.347 880.927 209.68 869.167 209.68C861.327 209.68 853.394 208.747 845.367 206.88C837.341 204.827 830.621 201.28 825.208 196.24C819.981 191.2 817.367 184.2 817.367 175.24C817.367 173.747 817.461 172.253 817.648 170.76C817.834 169.08 818.114 167.4 818.487 165.72C820.354 156.76 824.834 148.827 831.927 141.92C839.207 135.013 847.888 129.227 857.968 124.56C868.048 119.893 878.501 116.44 889.328 114.2C900.154 111.773 910.141 110.56 919.288 110.56C931.794 110.56 942.434 112.613 951.208 116.72C960.168 120.64 968.754 126.707 976.968 134.92C977.528 135.293 978.181 135.853 978.927 136.6C979.674 137.347 980.421 137.907 981.167 138.28C982.287 138.28 983.128 136.973 983.688 134.36C983.874 133.8 983.968 133.24 983.968 132.68C983.968 132.12 983.968 131.56 983.968 131C983.968 126.52 982.101 122.693 978.367 119.52C974.821 116.347 970.248 113.733 964.648 111.68C959.048 109.627 953.168 108.04 947.008 106.92C940.848 105.613 935.061 104.68 929.648 104.12C924.421 103.56 920.407 103.28 917.607 103.28C904.541 103.28 891.288 105.147 877.848 108.88C864.594 112.427 852.367 117.653 841.167 124.56C829.967 131.28 820.914 139.307 814.008 148.64C807.288 157.973 803.927 168.24 803.927 179.44C803.927 186.347 805.794 192.32 809.528 197.36C813.074 202.4 817.834 206.507 823.807 209.68C829.781 212.853 836.314 215.187 843.408 216.68C850.688 218.173 857.874 218.92 864.968 218.92C876.914 218.92 888.861 217.147 900.807 213.6C912.941 209.867 924.794 205.013 936.367 199.04C947.941 193.067 958.768 186.627 968.848 179.72C978.928 172.627 987.981 165.627 996.008 158.72C996.008 158.72 996.194 158.627 996.568 158.44C997.128 158.253 997.501 158.16 997.688 158.16H1046.97C1048.83 158.16 1049.77 159.093 1049.77 160.96C1049.77 162.827 1048.83 163.76 1046.97 163.76H998.807C990.781 170.667 981.634 177.667 971.367 184.76C961.101 191.853 950.088 198.387 938.328 204.36C926.568 210.333 914.434 215.187 901.927 218.92C889.607 222.653 877.288 224.52 864.968 224.52ZM1082.81 195.4C1076.83 195.4 1072.63 194 1070.21 191.2C1067.78 188.213 1066.57 184.573 1066.57 180.28C1066.57 175.24 1067.59 169.827 1069.65 164.04C1071.89 158.253 1074.31 152.84 1076.93 147.8C1079.54 142.76 1081.59 139.027 1083.09 136.6C1086.82 130.253 1091.58 122.787 1097.37 114.2C1103.15 105.613 1109.31 96.84 1115.85 87.88C1122.57 78.92 1128.82 70.7067 1134.61 63.24C1135.17 62.4933 1135.91 62.12 1136.85 62.12C1137.78 62.12 1138.62 62.68 1139.37 63.8C1140.11 64.7333 1140.02 65.6667 1139.09 66.6C1138.15 67.72 1135.82 70.6133 1132.09 75.28C1128.54 79.9467 1124.25 85.7333 1119.21 92.64C1114.17 99.36 1108.94 106.827 1103.53 115.04C1098.11 123.067 1092.98 131.187 1088.13 139.4C1083.46 147.427 1079.63 154.987 1076.65 162.08C1073.66 168.987 1072.17 174.773 1072.17 179.44C1072.17 186.347 1075.71 189.8 1082.81 189.8C1088.03 189.8 1093.91 188.587 1100.45 186.16C1107.17 183.547 1113.79 179.907 1120.33 175.24C1126.86 170.573 1132.46 165.253 1137.13 159.28C1137.69 158.533 1138.43 158.16 1139.37 158.16C1140.3 158.16 1141.05 158.72 1141.61 159.84C1142.35 160.96 1142.26 161.987 1141.33 162.92C1136.66 169.08 1130.87 174.68 1123.97 179.72C1117.06 184.573 1109.97 188.4 1102.69 191.2C1095.59 194 1088.97 195.4 1082.81 195.4ZM1030.17 150.04C1027.55 150.04 1024.85 150.04 1022.05 150.04C1019.43 149.853 1016.63 149.76 1013.65 149.76C1011.78 149.76 1010.85 148.827 1010.85 146.96C1010.85 145.093 1011.78 144.16 1013.65 144.16C1016.07 144.16 1018.59 144.253 1021.21 144.44C1023.82 144.44 1026.43 144.44 1029.05 144.44C1031.85 144.44 1034.65 144.347 1037.45 144.16C1040.43 143.973 1043.33 143.507 1046.13 142.76C1049.86 141.827 1053.22 140.333 1056.21 138.28C1059.19 136.227 1062.27 132.96 1065.45 128.48C1071.79 119.893 1078.14 111.493 1084.49 103.28C1090.83 95.0667 1096.62 87.7867 1101.85 81.44C1107.26 75.0933 1111.55 70.4267 1114.73 67.44C1115.29 66.88 1115.94 66.6 1116.69 66.6C1117.62 66.6 1118.37 67.16 1118.93 68.28C1119.67 69.4 1119.49 70.4267 1118.37 71.36C1115.38 74.3467 1111.27 79.0133 1106.05 85.36C1100.82 91.52 1095.03 98.7067 1088.69 106.92C1082.53 114.947 1076.27 123.253 1069.93 131.84C1064.14 139.867 1057.98 144.907 1051.45 146.96C1044.91 149.013 1037.82 150.04 1030.17 150.04ZM1027.09 137.44C1025.22 137.44 1024.29 136.507 1024.29 134.64C1024.29 133.707 1024.66 132.96 1025.41 132.4C1029.7 128.853 1035.39 124.187 1042.49 118.4C1049.58 112.427 1056.95 106.173 1064.61 99.64C1072.45 92.92 1079.54 86.8533 1085.89 81.44C1086.26 81.0667 1086.82 80.88 1087.57 80.88C1089.62 80.88 1090.65 81.9067 1090.65 83.96C1090.65 84.52 1090.27 85.1733 1089.53 85.92C1083.18 91.3333 1076.09 97.3067 1068.25 103.84C1060.59 110.373 1053.22 116.627 1046.13 122.6C1039.03 128.387 1033.25 133.147 1028.77 136.88C1028.39 137.253 1027.83 137.44 1027.09 137.44ZM1071.05 216.4C1067.13 216.4 1062.65 215.56 1057.61 213.88C1052.75 212.2 1048.46 209.4 1044.73 205.48C1041.18 201.56 1039.41 196.24 1039.41 189.52C1039.41 187.467 1039.59 185.413 1039.97 183.36C1040.34 181.307 1040.9 179.067 1041.65 176.64C1042.21 175.333 1043.05 174.68 1044.17 174.68C1045.1 174.68 1045.85 175.053 1046.41 175.8C1047.15 176.36 1047.34 177.2 1046.97 178.32C1045.66 182.24 1045.01 185.88 1045.01 189.24C1045.01 194.653 1046.41 198.947 1049.21 202.12C1052.01 205.293 1055.46 207.533 1059.57 208.84C1063.67 210.147 1067.5 210.8 1071.05 210.8C1077.95 210.8 1084.95 209.213 1092.05 206.04C1099.14 202.867 1105.95 199.133 1112.49 194.84C1113.23 194.467 1113.7 194.28 1113.89 194.28C1114.82 194.28 1115.47 194.653 1115.85 195.4C1116.41 195.96 1116.69 196.613 1116.69 197.36C1116.69 198.293 1116.31 199.04 1115.57 199.6C1108.85 203.893 1101.66 207.813 1094.01 211.36C1086.35 214.72 1078.7 216.4 1071.05 216.4Z" fill="white"/>
<path d="M1443.17 124.84C1442.43 124.84 1441.68 124.56 1440.93 124C1440.37 123.253 1440.19 122.32 1440.37 121.2C1442.43 112.427 1445.79 103.747 1450.45 95.16C1455.12 86.3867 1460.72 78.36 1467.25 71.08C1473.79 63.8 1480.88 57.8267 1488.53 53.16C1490.03 52.2267 1491.15 51.76 1491.89 51.76C1493.95 51.76 1497.03 52.32 1501.13 53.44C1505.24 54.56 1510.75 55.12 1517.65 55.12C1518.96 55.12 1519.99 54.7467 1520.73 54C1521.48 53.2533 1521.85 52.5067 1521.85 51.76C1521.85 48.96 1519.15 46.2533 1513.73 43.64C1508.51 41.0267 1501.32 38.6933 1492.17 36.64C1483.21 34.4 1473.04 32.3467 1461.65 30.48C1450.45 28.6133 1438.79 26.9333 1426.65 25.44C1414.71 23.9467 1403.13 22.7333 1391.93 21.8C1380.73 20.8667 1370.56 20.12 1361.41 19.56C1352.45 19 1345.45 18.72 1340.41 18.72C1335.37 18.72 1328.75 19 1320.53 19.56C1312.32 19.9333 1303.55 20.96 1294.21 22.64C1284.88 24.1333 1276.01 26.4667 1267.61 29.64C1259.4 32.6267 1252.59 36.64 1247.17 41.68C1241.95 46.5333 1239.33 52.7867 1239.33 60.44C1239.33 61.1867 1239.52 62.2133 1239.89 63.52C1240.27 64.8267 1240.92 65.48 1241.85 65.48C1242.97 65.48 1244.09 64.8267 1245.21 63.52C1246.33 62.0267 1247.27 60.8133 1248.01 59.88C1255.29 50.5467 1263.79 43.7333 1273.49 39.44C1283.39 35.1467 1293.84 32.44 1304.85 31.32C1315.87 30.2 1326.69 29.64 1337.33 29.64C1360.29 29.64 1384.09 30.9467 1408.73 33.56C1433.56 36.1733 1457.08 40.6533 1479.29 47C1480.79 47.56 1481.53 48.4933 1481.53 49.8C1481.53 50.5467 1481.16 51.2933 1480.41 52.04C1479.85 52.6 1479.01 52.7867 1477.89 52.6C1455.87 46.44 1432.63 42.0533 1408.17 39.44C1383.72 36.64 1360.11 35.24 1337.33 35.24C1326.51 35.24 1315.87 35.8 1305.41 36.92C1294.96 37.8533 1285.07 40.4667 1275.73 44.76C1266.59 49.0533 1258.28 55.96 1250.81 65.48C1249.69 66.7867 1248.39 68.0933 1246.89 69.4C1245.59 70.52 1243.91 71.08 1241.85 71.08C1238.87 71.08 1236.72 69.96 1235.41 67.72C1234.29 65.2933 1233.73 62.8667 1233.73 60.44C1233.73 51.8533 1236.44 44.76 1241.85 39.16C1247.27 33.3733 1254.27 28.8 1262.85 25.44C1271.63 21.8933 1280.87 19.28 1290.57 17.6C1300.28 15.7333 1309.52 14.52 1318.29 13.96C1327.25 13.4 1334.63 13.12 1340.41 13.12C1344.52 13.12 1350.96 13.4 1359.73 13.96C1368.51 14.3333 1378.59 14.9867 1389.97 15.92C1401.55 16.8533 1413.59 18.0667 1426.09 19.56C1438.6 21.0533 1450.83 22.8267 1462.77 24.88C1474.91 26.9333 1485.83 29.2667 1495.53 31.88C1505.24 34.4933 1512.99 37.48 1518.77 40.84C1524.56 44.2 1527.45 47.84 1527.45 51.76C1527.45 54.3733 1526.43 56.52 1524.37 58.2C1522.32 59.6933 1520.27 60.44 1518.21 60.44C1513.92 60.44 1509.53 60.16 1505.05 59.6C1500.76 58.8533 1496.47 58.1067 1492.17 57.36C1484.89 61.6533 1478.08 67.3467 1471.73 74.44C1465.39 81.5333 1459.97 89.28 1455.49 97.68C1451.01 105.893 1447.75 114.2 1445.69 122.6C1445.32 124.093 1444.48 124.84 1443.17 124.84ZM1507.85 195.4C1503.75 195.4 1499.64 194.28 1495.53 192.04C1491.43 189.8 1489.37 185.88 1489.37 180.28C1489.37 175.613 1491.52 169.733 1495.81 162.64C1500.29 155.547 1506.17 147.893 1513.45 139.68C1520.92 131.28 1529.13 122.787 1538.09 114.2C1547.24 105.613 1556.48 97.4 1565.81 89.56C1575.33 81.72 1584.29 74.8133 1592.69 68.84C1601.28 62.68 1608.56 58.0133 1614.53 54.84C1619.57 52.2267 1624.8 50.08 1630.21 48.4C1635.81 46.72 1641.6 45.88 1647.57 45.88C1652.99 45.88 1658.31 46.5333 1663.53 47.84C1668.76 49.1467 1673.99 49.8 1679.21 49.8C1680.71 49.8 1682.95 49.4267 1685.93 48.68C1689.11 47.7467 1690.69 46.16 1690.69 43.92C1690.69 41.3067 1688.64 39.2533 1684.53 37.76C1680.43 36.2667 1675.48 35.24 1669.69 34.68C1664.09 33.9333 1658.87 33.4667 1654.01 33.28C1649.35 33.0933 1646.36 33 1645.05 33C1624.89 33 1604.83 35.7067 1584.85 41.12C1564.88 46.3467 1546.4 54.6533 1529.41 66.04C1513.36 76.68 1498.8 88.2533 1485.73 100.76C1472.67 113.08 1459.23 125.867 1445.41 139.12C1440.19 143.973 1435.05 148.733 1430.01 153.4C1424.97 158.067 1420.4 162.08 1416.29 165.44C1412.19 168.613 1409.01 170.667 1406.77 171.6C1406.59 171.787 1406.21 171.88 1405.65 171.88C1404.91 171.88 1404.25 171.6 1403.69 171.04C1403.32 170.293 1403.13 169.547 1403.13 168.8C1403.13 167.68 1403.69 166.84 1404.81 166.28C1407.05 165.347 1410.6 162.827 1415.45 158.72C1420.49 154.613 1426.09 149.667 1432.25 143.88C1438.41 137.907 1444.67 131.933 1451.01 125.96C1457.36 119.8 1463.05 114.2 1468.09 109.16C1473.32 103.933 1477.33 100.107 1480.13 97.68C1487.41 91.1467 1494.88 84.8 1502.53 78.64C1510.37 72.48 1518.31 66.6933 1526.33 61.28C1543.69 49.7067 1562.64 41.2133 1583.17 35.8C1603.71 30.2 1624.33 27.4 1645.05 27.4C1646.92 27.4 1649.81 27.4933 1653.73 27.68C1657.84 27.68 1662.23 27.96 1666.89 28.52C1671.75 28.8933 1676.41 29.7333 1680.89 31.04C1685.37 32.16 1689.01 33.7467 1691.81 35.8C1694.8 37.8533 1696.29 40.56 1696.29 43.92C1696.29 48.2133 1694.24 51.2 1690.13 52.88C1686.21 54.56 1682.57 55.4 1679.21 55.4C1673.99 55.4 1668.76 54.7467 1663.53 53.44C1658.31 52.1333 1652.99 51.48 1647.57 51.48C1636.75 51.48 1626.57 54.28 1617.05 59.88C1607.53 65.2933 1598.39 71.2667 1589.61 77.8C1586.07 80.4133 1581.31 84.1467 1575.33 89C1569.36 93.8533 1562.83 99.4533 1555.73 105.8C1548.64 112.147 1541.55 118.867 1534.45 125.96C1527.36 132.867 1520.83 139.773 1514.85 146.68C1508.88 153.4 1504.03 159.653 1500.29 165.44C1496.75 171.227 1494.97 176.173 1494.97 180.28C1494.97 183.453 1496.19 185.88 1498.61 187.56C1501.23 189.053 1504.31 189.8 1507.85 189.8C1513.08 189.8 1518.87 188.213 1525.21 185.04C1531.56 181.68 1537.63 177.667 1543.41 173C1549.2 168.147 1553.68 163.573 1556.85 159.28C1557.41 158.533 1558.07 158.16 1558.81 158.16C1559.93 158.16 1560.87 158.72 1561.61 159.84C1562.36 160.773 1562.27 161.707 1561.33 162.64C1557.97 167.12 1553.21 171.973 1547.05 177.2C1541.08 182.24 1534.55 186.533 1527.45 190.08C1520.55 193.627 1514.01 195.4 1507.85 195.4ZM1372.61 206.6C1370.37 206.6 1368.13 205.947 1365.89 204.64C1363.65 203.333 1362.53 201.093 1362.53 197.92C1362.53 193.627 1363.93 190.267 1366.73 187.84C1369.72 185.413 1372.8 183.36 1375.97 181.68C1382.32 178.133 1387.92 172.813 1392.77 165.72C1397.63 158.44 1402.11 150.413 1406.21 141.64C1410.51 132.68 1414.61 123.813 1418.53 115.04C1422.64 106.267 1426.93 98.52 1431.41 91.8C1435.89 85.08 1440.93 80.4133 1446.53 77.8C1446.72 77.6133 1447.09 77.52 1447.65 77.52C1449.52 77.52 1450.45 78.5467 1450.45 80.6C1450.45 81.5333 1449.89 82.28 1448.77 82.84C1443.73 85.2667 1439.07 89.7467 1434.77 96.28C1430.67 102.813 1426.65 110.467 1422.73 119.24C1418.81 127.827 1414.71 136.6 1410.41 145.56C1406.12 154.333 1401.36 162.453 1396.13 169.92C1391.09 177.2 1385.21 182.707 1378.49 186.44C1376.44 187.56 1374.2 189.053 1371.77 190.92C1369.35 192.6 1368.13 194.933 1368.13 197.92C1368.13 199.973 1369.63 201 1372.61 201C1378.03 201 1384.28 198.947 1391.37 194.84C1398.47 190.547 1406.12 184.853 1414.33 177.76C1422.73 170.667 1431.6 162.733 1440.93 153.96C1450.08 145.187 1459.69 136.04 1469.77 126.52C1479.85 116.813 1490.12 107.387 1500.57 98.24C1511.21 89.0933 1521.95 80.6933 1532.77 73.04C1543.6 65.3867 1554.33 59.1333 1564.97 54.28C1571.69 51.1067 1578.23 48.4 1584.57 46.16C1591.11 43.92 1597.73 42.8 1604.45 42.8C1606.32 42.8 1607.25 43.7333 1607.25 45.6C1607.25 47.4667 1606.32 48.4 1604.45 48.4C1592.13 49.3333 1579.63 52.9733 1566.93 59.32C1554.24 65.48 1541.55 73.32 1528.85 82.84C1516.35 92.1733 1504.03 102.44 1491.89 113.64C1479.76 124.653 1468 135.667 1456.61 146.68C1445.23 157.507 1434.4 167.493 1424.13 176.64C1414.05 185.6 1404.63 192.88 1395.85 198.48C1387.08 203.893 1379.33 206.6 1372.61 206.6ZM1224.21 224.8C1216.56 224.8 1208.16 223.867 1199.01 222C1190.05 220.133 1181.47 217.053 1173.25 212.76C1165.04 208.467 1158.32 202.867 1153.09 195.96C1147.87 188.867 1145.25 180.28 1145.25 170.2C1145.25 161.053 1147.59 152.747 1152.25 145.28C1157.11 137.627 1163.45 130.907 1171.29 125.12C1179.13 119.147 1187.63 114.107 1196.77 110C1205.92 105.893 1215.07 102.813 1224.21 100.76C1233.36 98.7067 1241.48 97.68 1248.57 97.68C1256.79 97.68 1265.47 98.4267 1274.61 99.92C1283.76 101.227 1292.35 103.373 1300.37 106.36C1308.4 109.347 1314.93 113.173 1319.97 117.84C1325.01 122.507 1327.53 128.2 1327.53 134.92C1327.53 137.907 1326.79 140.147 1325.29 141.64C1323.99 143.133 1322.4 143.88 1320.53 143.88C1319.23 143.88 1317.83 143.413 1316.33 142.48C1315.03 141.36 1313.63 140.147 1312.13 138.84C1303.17 131.56 1294.12 125.96 1284.97 122.04C1275.83 118.12 1265.19 116.16 1253.05 116.16C1247.45 116.16 1241.01 116.907 1233.73 118.4C1226.45 119.893 1218.99 122.133 1211.33 125.12C1203.87 127.92 1196.87 131.373 1190.33 135.48C1183.99 139.4 1178.85 143.973 1174.93 149.2C1171.01 154.427 1169.05 160.12 1169.05 166.28C1169.05 175.987 1171.67 183.547 1176.89 188.96C1182.12 194.373 1188.84 198.293 1197.05 200.72C1205.45 202.96 1214.04 204.08 1222.81 204.08C1233.83 204.08 1244.93 201.84 1256.13 197.36C1267.52 192.693 1278.53 186.72 1289.17 179.44C1300 171.973 1310.17 163.947 1319.69 155.36C1329.21 146.773 1337.61 138.56 1344.89 130.72C1348.07 127.36 1352.64 122.6 1358.61 116.44C1364.77 110.093 1371.68 103.28 1379.33 96C1386.99 88.72 1394.83 81.8133 1402.85 75.28C1410.88 68.7467 1418.35 63.3333 1425.25 59.04C1432.35 54.7467 1438.23 52.6 1442.89 52.6H1443.45C1445.32 52.6 1446.25 53.5333 1446.25 55.4C1446.25 56.8933 1445.41 57.8267 1443.73 58.2C1439.63 58.76 1434.21 61.1867 1427.49 65.48C1420.96 69.5867 1413.87 74.8133 1406.21 81.16C1398.56 87.5067 1390.91 94.1333 1383.25 101.04C1375.79 107.947 1368.97 114.387 1362.81 120.36C1356.84 126.333 1352.27 131.093 1349.09 134.64C1341.81 142.48 1333.32 150.787 1323.61 159.56C1313.91 168.147 1303.45 176.267 1292.25 183.92C1281.24 191.573 1269.85 197.827 1258.09 202.68C1246.33 207.347 1234.57 209.68 1222.81 209.68C1216.09 209.68 1209.28 209.027 1202.37 207.72C1195.47 206.413 1189.03 204.173 1183.05 201C1177.27 197.64 1172.51 193.16 1168.77 187.56C1165.23 181.96 1163.45 174.867 1163.45 166.28C1163.45 158.813 1165.6 152.187 1169.89 146.4C1174.37 140.427 1180.07 135.2 1186.97 130.72C1194.07 126.24 1201.63 122.507 1209.65 119.52C1217.87 116.533 1225.8 114.293 1233.45 112.8C1241.11 111.307 1247.64 110.56 1253.05 110.56C1265.93 110.56 1277.23 112.707 1286.93 117C1296.64 121.107 1306.16 126.987 1315.49 134.64C1316.43 135.2 1317.36 135.947 1318.29 136.88C1319.23 137.813 1320.07 138.28 1320.81 138.28C1321.75 138.28 1322.21 137.16 1322.21 134.92C1322.21 129.32 1319.69 124.56 1314.65 120.64C1309.8 116.533 1303.45 113.267 1295.61 110.84C1287.96 108.227 1279.93 106.36 1271.53 105.24C1263.13 103.933 1255.48 103.28 1248.57 103.28C1241.48 103.28 1233.55 104.307 1224.77 106.36C1216 108.413 1207.32 111.4 1198.73 115.32C1190.15 119.24 1182.21 124 1174.93 129.6C1167.65 135.013 1161.77 141.173 1157.29 148.08C1153 154.8 1150.85 162.173 1150.85 170.2C1150.85 178.973 1153.09 186.44 1157.57 192.6C1162.24 198.76 1168.31 203.8 1175.77 207.72C1183.24 211.64 1191.17 214.533 1199.57 216.4C1208.16 218.267 1216.37 219.2 1224.21 219.2C1235.23 219.2 1246.8 216.773 1258.93 211.92C1271.25 206.88 1283.39 200.533 1295.33 192.88C1307.28 185.04 1318.48 176.733 1328.93 167.96C1339.39 159.187 1348.44 150.973 1356.09 143.32C1361.51 137.907 1367.67 131.747 1374.57 124.84C1381.48 117.747 1388.85 110.56 1396.69 103.28C1404.72 95.8133 1412.84 88.8133 1421.05 82.28C1429.45 75.56 1437.67 69.8667 1445.69 65.2C1453.91 60.3467 1461.75 57.08 1469.21 55.4H1470.05C1471.73 55.4 1472.57 56.3333 1472.57 58.2C1472.57 59.5067 1471.83 60.3467 1470.33 60.72C1463.24 62.4 1455.68 65.5733 1447.65 70.24C1439.81 74.9067 1431.79 80.6 1423.57 87.32C1415.36 93.8533 1407.33 100.76 1399.49 108.04C1391.84 115.32 1384.65 122.413 1377.93 129.32C1371.21 136.04 1365.24 142.013 1360.01 147.24C1352.55 154.893 1343.49 163.2 1332.85 172.16C1322.21 180.933 1310.73 189.333 1298.41 197.36C1286.09 205.387 1273.59 211.92 1260.89 216.96C1248.2 222.187 1235.97 224.8 1224.21 224.8ZM1500.01 214.72C1495.35 214.72 1490.4 213.973 1485.17 212.48C1479.95 210.8 1475.47 208.187 1471.73 204.64C1468 200.907 1466.13 195.867 1466.13 189.52C1466.13 180.373 1468.56 171.04 1473.41 161.52C1478.45 152 1484.89 142.573 1492.73 133.24C1500.76 123.907 1509.44 115.04 1518.77 106.64C1528.11 98.24 1537.25 90.4933 1546.21 83.4C1555.17 76.3067 1562.92 70.3333 1569.45 65.48C1569.83 65.1067 1570.39 64.92 1571.13 64.92C1573 64.92 1573.93 65.8533 1573.93 67.72C1573.93 68.6533 1573.56 69.4 1572.81 69.96C1565.91 75 1557.97 81.0667 1549.01 88.16C1540.24 95.0667 1531.37 102.627 1522.41 110.84C1513.45 119.053 1505.05 127.64 1497.21 136.6C1489.56 145.56 1483.4 154.52 1478.73 163.48C1474.07 172.44 1471.73 181.12 1471.73 189.52C1471.73 194 1473.13 197.733 1475.93 200.72C1478.73 203.52 1482.28 205.667 1486.57 207.16C1491.05 208.467 1495.53 209.12 1500.01 209.12C1506.92 209.12 1513.64 207.813 1520.17 205.2C1526.89 202.587 1532.96 199.227 1538.37 195.12C1538.75 194.747 1539.31 194.56 1540.05 194.56C1541.92 194.56 1542.85 195.493 1542.85 197.36C1542.85 198.293 1542.48 199.04 1541.73 199.6C1535.95 204.08 1529.41 207.72 1522.13 210.52C1515.04 213.32 1507.67 214.72 1500.01 214.72Z" fill="white"/>
</svg>
