<svg width="1722" height="224" viewBox="0 0 1722 224" fill="none" xmlns="http://www.w3.org/2000/svg">
<path d="M0.399994 224V-1.52588e-05H106.32C131.067 -1.52588e-05 152.827 4.58666 171.6 13.76C190.373 22.9333 204.987 35.84 215.44 52.48C226.107 69.12 231.44 88.96 231.44 112C231.44 134.827 226.107 154.667 215.44 171.52C204.987 188.16 190.373 201.067 171.6 210.24C152.827 219.413 131.067 224 106.32 224H0.399994ZM63.76 173.44H103.76C116.56 173.44 127.653 171.093 137.04 166.4C146.64 161.493 154.107 154.453 159.44 145.28C164.773 135.893 167.44 124.8 167.44 112C167.44 98.9867 164.773 87.8933 159.44 78.72C154.107 69.5467 146.64 62.6133 137.04 57.92C127.653 53.0133 116.56 50.56 103.76 50.56H63.76V173.44Z" fill="white"/>
<path d="M1256.4 224V-1.52588e-05H1358.8C1379.28 -1.52588e-05 1396.88 3.30665 1411.6 9.91999C1426.53 16.5333 1438.05 26.1333 1446.16 38.72C1454.27 51.0933 1458.32 65.8133 1458.32 82.88C1458.32 99.7333 1454.27 114.347 1446.16 126.72C1438.05 139.093 1426.53 148.693 1411.6 155.52C1396.88 162.133 1379.28 165.44 1358.8 165.44H1291.6L1319.76 137.92V224H1256.4ZM1319.76 144.64L1291.6 115.52H1354.96C1368.19 115.52 1378 112.64 1384.4 106.88C1391.01 101.12 1394.32 93.12 1394.32 82.88C1394.32 72.4267 1391.01 64.32 1384.4 58.56C1378 52.8 1368.19 49.92 1354.96 49.92H1291.6L1319.76 20.8V144.64Z" fill="white"/>
<path d="M1460.68 224L1559.56 -1.52588e-05H1621.96L1721.16 224H1655.24L1577.8 31.04H1602.76L1525.32 224H1460.68ZM1514.76 180.48L1531.08 133.76H1640.52L1656.84 180.48H1514.76Z" fill="white"/>
<path d="M308.53 174.72H420.27V224H249V0H416.3V49.28H308.53V174.72ZM304.26 86.72H1237.07V133.72H304.26V86.72ZM304.54 0H1237.07V49.28H304.54V0ZM304.4 174.72H1236.92V224H304.4V174.72Z" fill="white"/>
</svg>
