<svg width="1287" height="257" viewBox="0 0 1287 257" fill="none" xmlns="http://www.w3.org/2000/svg">
<g filter="url(#filter0_f_129_4)">
<path d="M900.9 212.707C895.367 212.707 890.233 211.841 885.5 210.107C880.833 208.307 876.767 205.774 873.3 202.507C869.9 199.241 867.233 195.407 865.3 191.007C863.367 186.541 862.4 181.641 862.4 176.307C862.4 170.974 863.367 166.107 865.3 161.707C867.233 157.241 869.9 153.374 873.3 150.107C876.767 146.841 880.833 144.341 885.5 142.607C890.233 140.807 895.367 139.907 900.9 139.907C907.367 139.907 913.133 141.041 918.2 143.307C923.333 145.574 927.6 148.841 931 153.107L918.4 164.507C916.133 161.841 913.633 159.807 910.9 158.407C908.233 157.007 905.233 156.307 901.9 156.307C899.033 156.307 896.4 156.774 894 157.707C891.6 158.641 889.533 160.007 887.8 161.807C886.133 163.541 884.8 165.641 883.8 168.107C882.867 170.574 882.4 173.307 882.4 176.307C882.4 179.307 882.867 182.041 883.8 184.507C884.8 186.974 886.133 189.107 887.8 190.907C889.533 192.641 891.6 193.974 894 194.907C896.4 195.841 899.033 196.307 901.9 196.307C905.233 196.307 908.233 195.607 910.9 194.207C913.633 192.807 916.133 190.774 918.4 188.107L931 199.507C927.6 203.707 923.333 206.974 918.2 209.307C913.133 211.574 907.367 212.707 900.9 212.707ZM944.828 211.307V141.307H976.828C983.228 141.307 988.728 142.341 993.328 144.407C997.995 146.474 1001.59 149.474 1004.13 153.407C1006.66 157.274 1007.93 161.874 1007.93 167.207C1007.93 172.474 1006.66 177.041 1004.13 180.907C1001.59 184.707 997.995 187.641 993.328 189.707C988.728 191.707 983.228 192.707 976.828 192.707H955.828L964.628 184.407V211.307H944.828ZM988.128 211.307L970.728 185.807H991.828L1009.33 211.307H988.128ZM964.628 186.507L955.828 177.407H975.628C979.761 177.407 982.828 176.507 984.828 174.707C986.895 172.907 987.928 170.407 987.928 167.207C987.928 163.941 986.895 161.407 984.828 159.607C982.828 157.807 979.761 156.907 975.628 156.907H955.828L964.628 147.807V186.507ZM1042.05 168.407H1074.55V183.207H1042.05V168.407ZM1043.45 196.007H1080.05V211.307H1023.85V141.307H1078.75V156.607H1043.45V196.007ZM1087.64 211.307L1118.54 141.307H1138.04L1169.04 211.307H1148.44L1124.24 151.007H1132.04L1107.84 211.307H1087.64ZM1104.54 197.707L1109.64 183.107H1143.84L1148.94 197.707H1104.54ZM1179.65 211.307V141.307H1195.95L1224.95 188.907H1216.35L1244.55 141.307H1260.85L1261.05 211.307H1242.85L1242.65 169.007H1245.75L1224.65 204.407H1215.85L1194.15 169.007H1197.95V211.307H1179.65Z" fill="#FF5C00"/>
</g>
<g filter="url(#filter1_f_129_4)">
<path d="M17.5 242V67H100.25C119.583 67 136.583 70.5833 151.25 77.75C165.917 84.9167 177.333 95 185.5 108C193.833 121 198 136.5 198 154.5C198 172.333 193.833 187.833 185.5 201C177.333 214 165.917 224.083 151.25 231.25C136.583 238.417 119.583 242 100.25 242H17.5ZM67 202.5H98.25C108.25 202.5 116.917 200.667 124.25 197C131.75 193.167 137.583 187.667 141.75 180.5C145.917 173.167 148 164.5 148 154.5C148 144.333 145.917 135.667 141.75 128.5C137.583 121.333 131.75 115.917 124.25 112.25C116.917 108.417 108.25 106.5 98.25 106.5H67V202.5ZM294.543 134.75H375.793V171.75H294.543V134.75ZM298.043 203.75H389.543V242H249.043V67H386.293V105.25H298.043V203.75ZM442.012 242V67H522.012C538.012 67 551.762 69.5833 563.262 74.75C574.928 79.9167 583.928 87.4167 590.262 97.25C596.595 106.917 599.762 118.417 599.762 131.75C599.762 144.917 596.595 156.333 590.262 166C583.928 175.667 574.928 183.167 563.262 188.5C551.762 193.667 538.012 196.25 522.012 196.25H469.512L491.512 174.75V242H442.012ZM491.512 180L469.512 157.25H519.012C529.345 157.25 537.012 155 542.012 150.5C547.178 146 549.762 139.75 549.762 131.75C549.762 123.583 547.178 117.25 542.012 112.75C537.012 108.25 529.345 106 519.012 106H469.512L491.512 83.25V180ZM619.107 242L696.357 67H745.107L822.607 242H771.107L710.607 91.25H730.107L669.607 242H619.107ZM661.357 208L674.107 171.5H759.607L772.357 208H661.357Z" fill="#FF5C00"/>
</g>
<defs>
<filter id="filter0_f_129_4" x="854.4" y="131.907" width="414.652" height="88.8" filterUnits="userSpaceOnUse" color-interpolation-filters="sRGB">
<feFlood flood-opacity="0" result="BackgroundImageFix"/>
<feBlend mode="normal" in="SourceGraphic" in2="BackgroundImageFix" result="shape"/>
<feGaussianBlur stdDeviation="4" result="effect1_foregroundBlur_129_4"/>
</filter>
<filter id="filter1_f_129_4" x="9.5" y="59" width="821.107" height="191" filterUnits="userSpaceOnUse" color-interpolation-filters="sRGB">
<feFlood flood-opacity="0" result="BackgroundImageFix"/>
<feBlend mode="normal" in="SourceGraphic" in2="BackgroundImageFix" result="shape"/>
<feGaussianBlur stdDeviation="4" result="effect1_foregroundBlur_129_4"/>
</filter>
</defs>
</svg>
