<svg width="1305" height="234" viewBox="0 0 1305 234" fill="none" xmlns="http://www.w3.org/2000/svg">
<path d="M124.4 233.48C106.693 233.48 90.2667 230.707 75.12 225.16C59.9733 219.4 46.8533 211.293 35.76 200.84C24.88 190.387 16.3467 178.12 10.16 164.04C3.97334 149.747 0.880005 134.067 0.880005 117C0.880005 99.9333 3.97334 84.36 10.16 70.28C16.3467 55.9866 24.9867 43.6133 36.08 33.16C47.1733 22.7066 60.2933 14.7066 75.44 9.15996C90.8 3.39996 107.547 0.519958 125.68 0.519958C146.8 0.519958 165.68 4.03996 182.32 11.08C198.96 18.12 212.72 28.2533 223.6 41.48L183.28 77.96C175.6 69.64 167.28 63.4533 158.32 59.4C149.573 55.1333 139.76 53 128.88 53C119.28 53 110.533 54.4933 102.64 57.48C94.7467 60.4666 88.0267 64.84 82.48 70.6C76.9333 76.1466 72.56 82.8666 69.36 90.76C66.3733 98.44 64.88 107.187 64.88 117C64.88 126.387 66.3733 135.027 69.36 142.92C72.56 150.813 76.9333 157.64 82.48 163.4C88.0267 168.947 94.64 173.32 102.32 176.52C110.213 179.507 118.853 181 128.24 181C137.627 181 146.8 179.507 155.76 176.52C164.72 173.32 173.787 167.987 182.96 160.52L218.48 205C205.68 214.173 190.853 221.213 174 226.12C157.147 231.027 140.613 233.48 124.4 233.48ZM162.48 196.68V112.2H218.48V205L162.48 196.68Z" fill="white"/>
<path d="M241.37 229L340.25 4.99996H402.65L501.85 229H435.93L358.49 36.04H383.45L306.01 229H241.37ZM295.45 185.48L311.77 138.76H421.21L437.53 185.48H295.45Z" fill="white"/>
<path d="M529.413 229V4.99996H581.573L674.372 157.32H646.853L737.093 4.99996H789.253L789.893 229H731.653L731.013 93.64H740.932L673.413 206.92H645.253L575.812 93.64H587.973V229H529.413Z" fill="white"/>
<path d="M833.125 229V189.32L964.965 32.84L972.645 55.24H836.005V4.99996H1028.96V44.68L897.125 201.16L889.445 178.76H1033.77V229H833.125Z" fill="white"/>
<path d="M1044.23 229L1143.11 4.99996H1205.51L1304.71 229H1238.79L1161.35 36.04H1186.31L1108.87 229H1044.23ZM1098.31 185.48L1114.63 138.76H1224.07L1240.39 185.48H1098.31Z" fill="white"/>
</svg>
