<svg width="1310" height="242" viewBox="0 0 1310 242" fill="none" xmlns="http://www.w3.org/2000/svg">
<path d="M58.8 226.08C50.96 226.08 43.96 224.96 37.8 222.72C32.3867 220.667 27.8133 217.68 24.08 213.76C20.3467 209.84 18.48 205.64 18.48 201.16C18.48 196.12 20.8133 192.107 25.48 189.12C30.1467 185.947 37.0533 184.36 46.2 184.36C56.0933 184.36 66.08 185.76 76.16 188.56C86.24 191.36 95.6667 194.813 104.44 198.92C105.56 199.48 106.12 200.32 106.12 201.44C106.12 202.187 105.653 202.933 104.72 203.68C103.973 204.427 103.04 204.52 101.92 203.96C93.1467 199.853 84 196.493 74.48 193.88C64.96 191.267 55.6267 189.96 46.48 189.96C37.52 189.96 31.5467 191.267 28.56 193.88C25.5733 196.493 24.08 198.92 24.08 201.16C24.08 203.773 25.3867 206.76 28 210.12C30.6133 213.293 34.44 215.813 39.48 217.68C44.52 219.547 50.7733 220.48 58.24 220.48C67.2 220.48 75.88 219.267 84.28 216.84C92.8667 214.413 101.267 210.307 109.48 204.52C117.693 198.547 125.533 191.64 133 183.8C140.467 175.773 147.373 167.467 153.72 158.88C160.253 150.107 165.947 141.8 170.8 133.96C175.653 125.933 179.573 119.027 182.56 113.24C185.547 107.267 189.467 99.6134 194.32 90.28C199.173 80.76 204.773 70.8667 211.12 60.6C217.467 50.3334 224.373 40.72 231.84 31.76C239.493 22.6134 247.427 15.24 255.64 9.64001C264.04 3.85335 272.627 0.960022 281.4 0.960022C284.573 0.960022 287.84 1.42669 291.2 2.36002C294.56 3.10669 297.827 4.50669 301 6.56002C306.413 9.92002 310.333 14.0267 312.76 18.88C315.187 23.7334 316.4 29.1467 316.4 35.12C316.4 42.4 314.813 50.0534 311.64 58.08C308.467 65.92 304.08 73.48 298.48 80.76C293.067 88.04 286.813 94.5734 279.72 100.36C272.627 106.147 265.253 110.533 257.6 113.52C257.227 113.707 256.853 113.8 256.48 113.8C254.613 113.8 253.68 112.773 253.68 110.72C253.68 109.787 254.24 109.04 255.36 108.48C266.187 104.373 275.707 98.2134 283.92 90C292.133 81.7867 298.573 72.8267 303.24 63.12C308.093 53.4134 310.52 44.2667 310.52 35.68C310.52 30.64 309.493 25.9734 307.44 21.68C305.573 17.3867 302.493 14.0267 298.2 11.6C292.973 8.42668 287.467 6.84001 281.68 6.84001C273.467 6.84001 265.44 9.64002 257.6 15.24C249.76 20.84 242.2 28.12 234.92 37.08C227.827 46.04 221.2 55.56 215.04 65.64C208.88 75.5334 203.467 84.96 198.8 93.92C194.133 102.88 190.4 110.16 187.6 115.76C184.613 121.547 180.6 128.453 175.56 136.48C170.707 144.507 165.013 153 158.48 161.96C151.947 170.733 144.76 179.227 136.92 187.44C129.267 195.653 121.053 202.84 112.28 209C103.693 215.16 94.92 219.547 85.96 222.16C81.8533 223.28 77.4667 224.213 72.8 224.96C68.1333 225.707 63.4667 226.08 58.8 226.08ZM59.92 241.2C49.84 241.2 40.2267 239.52 31.08 236.16C21.9333 232.987 14.4667 228.227 8.68 221.88C2.89333 215.533 0 207.88 0 198.92C0 189.773 4.66667 182.213 14 176.24C23.3333 170.267 35.3733 167.28 50.12 167.28C62.2533 167.28 73.7333 169.24 84.56 173.16C95.5733 177.08 106.68 181.84 117.88 187.44C119 188 119.56 188.84 119.56 189.96C119.56 190.707 119.093 191.453 118.16 192.2C117.413 192.947 116.48 193.04 115.36 192.48C103.787 186.693 92.8667 182.027 82.6 178.48C72.3333 174.747 61.2267 172.88 49.28 172.88C35.28 172.88 24.4533 175.587 16.8 181C9.33333 186.413 5.6 192.573 5.6 199.48C5.6 207.32 8.30667 213.947 13.72 219.36C19.1333 224.773 25.9467 228.88 34.16 231.68C42.56 234.48 51.1467 235.88 59.92 235.88C75.2267 235.88 89.5067 232.613 102.76 226.08C116.013 219.547 128.333 210.773 139.72 199.76C151.107 188.747 161.56 176.52 171.08 163.08C180.6 149.453 189.187 135.733 196.84 121.92C199.453 117.067 202.813 110.907 206.92 103.44C211.213 95.7867 215.88 87.6667 220.92 79.08C225.96 70.4934 231.28 62.1867 236.88 54.16C242.667 45.9467 248.36 38.9467 253.96 33.16C259.56 27.1867 264.973 23.2667 270.2 21.4C273.373 20.0933 276.547 19.44 279.72 19.44C287.373 19.44 292.693 22.8 295.68 29.52C296.987 32.1334 297.64 35.4934 297.64 39.6C297.64 43.52 296.893 47.9067 295.4 52.76C293.907 57.4267 291.48 62.4667 288.12 67.88C285.32 72.36 281.307 76.84 276.08 81.32C271.04 85.6134 265.813 89.2534 260.4 92.24C254.987 95.2267 250.32 96.72 246.4 96.72H246.12C244.253 96.72 243.32 95.7867 243.32 93.92C243.32 92.0534 244.16 91.12 245.84 91.12C249.013 90.9334 253.027 89.5334 257.88 86.92C262.733 84.3067 267.493 81.04 272.16 77.12C277.013 73.2 280.653 69.1867 283.08 65.08C286.253 59.6667 288.493 54.8134 289.8 50.52C291.293 46.2267 292.04 42.4933 292.04 39.32C292.04 36.52 291.573 34 290.64 31.76C288.773 27.28 285.133 25.04 279.72 25.04C278.6 25.04 277.387 25.1334 276.08 25.32C274.96 25.5067 273.747 25.88 272.44 26.44C267.773 28.3067 262.733 32.1334 257.32 37.92C251.907 43.7067 246.4 50.6134 240.8 58.64C235.387 66.48 230.16 74.6933 225.12 83.28C220.08 91.68 215.507 99.6134 211.4 107.08C207.293 114.36 204.027 120.24 201.6 124.72C193.573 139.28 184.613 153.56 174.72 167.56C165.013 181.373 154.28 193.88 142.52 205.08C130.76 216.093 117.973 224.867 104.16 231.4C90.5333 237.933 75.7867 241.2 59.92 241.2ZM203 224.12C193.667 224.12 184.24 222.533 174.72 219.36C165.387 216 156.053 212.173 146.72 207.88C145.6 207.32 145.04 206.48 145.04 205.36C145.04 204.427 145.413 203.68 146.16 203.12C146.907 202.373 147.84 202.28 148.96 202.84C158.293 207.133 167.44 210.867 176.4 214.04C185.36 217.027 194.227 218.52 203 218.52C214.573 218.52 224.467 216.933 232.68 213.76C240.893 210.587 248.547 205.733 255.64 199.2C262.92 192.667 270.48 184.36 278.32 174.28C278.88 173.533 279.533 173.16 280.28 173.16C281.213 173.16 282.053 173.72 282.8 174.84C283.547 175.96 283.453 176.987 282.52 177.92C274.68 188 267.027 196.493 259.56 203.4C252.093 210.307 243.88 215.533 234.92 219.08C226.147 222.44 215.507 224.12 203 224.12ZM200.2 240.92C188.253 240.92 176.68 238.68 165.48 234.2C154.467 229.907 143.453 224.96 132.44 219.36C131.507 218.8 131.04 217.96 131.04 216.84C131.04 215.907 131.413 215.16 132.16 214.6C133.093 213.853 134.12 213.76 135.24 214.32C146.253 219.92 156.987 224.867 167.44 229.16C178.08 233.267 189 235.32 200.2 235.32C213.64 235.32 225.773 233.267 236.6 229.16C247.427 224.867 257.413 218.147 266.56 209L276.92 198.36C277.48 197.8 278.133 197.52 278.88 197.52C280 197.52 280.84 198.08 281.4 199.2C282.147 200.32 281.96 201.347 280.84 202.28C276.547 206.387 272.347 210.587 268.24 214.88C264.133 218.987 259.56 222.627 254.52 225.8C248.173 229.907 240.52 233.453 231.56 236.44C222.787 239.427 212.333 240.92 200.2 240.92Z" fill="white"/>
<path d="M400.387 86.08C397.4 86.08 395.44 84.7734 394.507 82.16C393.76 79.5467 393.574 77.12 393.947 74.88C395.627 66.6667 400.014 59.6667 407.107 53.88C414.387 47.9067 423.44 43.0534 434.267 39.32C445.28 35.5867 457.32 32.7867 470.387 30.92C483.454 29.0534 496.8 28.12 510.427 28.12C512.294 28.12 516.4 28.2134 522.747 28.4C529.094 28.4 536.654 28.68 545.427 29.24C554.387 29.8 563.534 30.7333 572.867 32.04C582.2 33.16 590.974 34.84 599.187 37.08C607.4 39.32 614.027 42.2133 619.067 45.76C624.294 49.12 626.907 53.32 626.907 58.36C626.907 60.4133 626.534 62.28 625.787 63.96C625.227 65.08 624.387 65.64 623.267 65.64C622.52 65.64 621.774 65.2667 621.027 64.52C620.467 63.7734 620.374 62.84 620.747 61.72C621.12 61.16 621.307 60.6 621.307 60.04C621.307 59.48 621.307 58.92 621.307 58.36C621.307 54.44 618.88 51.1734 614.027 48.56C609.174 45.76 602.827 43.52 594.987 41.84C587.147 39.9733 578.747 38.48 569.787 37.36C560.827 36.24 552.147 35.4934 543.747 35.12C535.347 34.56 528.067 34.1867 521.907 34C515.934 33.8134 512.107 33.72 510.427 33.72C496.427 33.72 483.08 34.6534 470.387 36.52C457.694 38.3867 446.307 41.0933 436.227 44.64C426.147 48.1867 417.84 52.5734 411.307 57.8C404.96 63.0267 401.04 69.0934 399.547 76C399.547 76.1867 399.454 76.4667 399.267 76.84C399.267 77.2134 399.267 77.5867 399.267 77.96C399.267 79.64 399.64 80.48 400.387 80.48C401.694 80.48 403.094 79.7333 404.587 78.24C406.267 76.7467 407.48 75.5334 408.227 74.6C417.374 65.2667 427.267 58.5467 437.907 54.44C448.547 50.1467 459.467 47.44 470.667 46.32C481.867 45.2 492.787 44.64 503.427 44.64C518.92 44.64 531.614 45.2 541.507 46.32C551.4 47.2534 559.334 48.4667 565.307 49.96C571.28 51.2667 576.134 52.48 579.867 53.6C581.174 54.16 581.827 55 581.827 56.12C581.827 57.0533 581.454 57.8933 580.707 58.64C579.96 59.2 579.12 59.3867 578.187 59.2C574.64 58.08 569.974 56.8667 564.187 55.56C558.4 54.0667 550.654 52.8533 540.947 51.92C531.24 50.8 518.734 50.24 503.427 50.24C491.48 50.24 480.094 50.8934 469.267 52.2C458.627 53.5067 448.36 56.3067 438.467 60.6C428.76 64.8934 419.334 71.6133 410.187 80.76C408.88 82.0667 407.387 83.28 405.707 84.4C404.214 85.52 402.44 86.08 400.387 86.08ZM341.027 239.52C334.12 239.52 326.747 238.68 318.907 237C311.254 235.507 303.974 233.08 297.067 229.72C290.347 226.173 284.84 221.6 280.547 216C276.254 210.213 274.107 203.12 274.107 194.72C274.107 184.827 276.534 175.68 281.387 167.28C286.054 158.88 292.4 151.32 300.427 144.6C308.64 137.88 317.88 132.187 328.147 127.52C338.414 122.667 349.147 119.027 360.347 116.6C371.734 113.987 382.84 112.68 393.667 112.68C397.214 112.68 401.974 112.96 407.947 113.52C413.92 114.08 420.174 115.107 426.707 116.6C433.427 118.093 439.774 120.147 445.747 122.76C451.72 125.187 456.574 128.36 460.307 132.28C464.04 136.2 465.907 140.867 465.907 146.28C465.907 147.027 465.814 147.773 465.627 148.52C465.627 149.08 465.534 149.827 465.347 150.76C465.16 152.067 464.414 153.747 463.107 155.8C461.8 157.853 459.747 158.88 456.947 158.88C455.08 158.88 452.84 157.667 450.227 155.24C447.8 152.627 445.934 150.667 444.627 149.36C437.72 143.013 430.16 138.44 421.947 135.64C413.92 132.653 405.054 131.16 395.347 131.16C380.787 131.16 367.534 133.027 355.587 136.76C343.827 140.493 333.654 145.44 325.067 151.6C316.48 157.573 309.854 164.013 305.187 170.92C300.707 177.827 298.467 184.547 298.467 191.08C298.467 198.733 302.2 205.36 309.667 210.96C317.134 216.373 328.987 219.08 345.227 219.08C356.24 219.08 367.907 216.84 380.227 212.36C392.547 207.693 404.867 201.72 417.187 194.44C429.694 186.973 441.547 178.947 452.747 170.36C464.134 161.773 474.307 153.56 483.267 145.72C486.067 143.293 490.267 139.84 495.867 135.36C501.654 130.693 508.187 125.467 515.467 119.68C522.934 113.707 530.587 107.64 538.427 101.48C546.454 95.32 554.107 89.3467 561.387 83.56C568.854 77.7734 575.48 72.64 581.267 68.16C587.054 63.68 591.347 60.32 594.147 58.08C594.52 57.7067 595.08 57.52 595.827 57.52C597.694 57.52 598.627 58.5467 598.627 60.6C598.627 61.3467 598.254 62 597.507 62.56C594.707 64.8 590.414 68.16 584.627 72.64C579.027 77.12 572.494 82.2533 565.027 88.04C557.747 93.64 550.094 99.6134 542.067 105.96C534.227 112.12 526.574 118.093 519.107 123.88C511.827 129.667 505.294 134.893 499.507 139.56C493.907 144.04 489.707 147.493 486.907 149.92C477.947 157.76 467.774 166.067 456.387 174.84C445 183.427 432.96 191.547 420.267 199.2C407.574 206.667 394.787 212.827 381.907 217.68C369.214 222.347 356.987 224.68 345.227 224.68C337.387 224.68 329.454 223.747 321.427 221.88C313.4 219.827 306.68 216.28 301.267 211.24C296.04 206.2 293.427 199.2 293.427 190.24C293.427 188.747 293.52 187.253 293.707 185.76C293.894 184.08 294.174 182.4 294.547 180.72C296.414 171.76 300.894 163.827 307.987 156.92C315.267 150.013 323.947 144.227 334.027 139.56C344.107 134.893 354.56 131.44 365.387 129.2C376.214 126.773 386.2 125.56 395.347 125.56C407.854 125.56 418.494 127.613 427.267 131.72C436.227 135.64 444.814 141.707 453.027 149.92C453.587 150.293 454.24 150.853 454.987 151.6C455.734 152.347 456.48 152.907 457.227 153.28C458.347 153.28 459.187 151.973 459.747 149.36C459.934 148.8 460.027 148.24 460.027 147.68C460.027 147.12 460.027 146.56 460.027 146C460.027 141.52 458.16 137.693 454.427 134.52C450.88 131.347 446.307 128.733 440.707 126.68C435.107 124.627 429.227 123.04 423.067 121.92C416.907 120.613 411.12 119.68 405.707 119.12C400.48 118.56 396.467 118.28 393.667 118.28C380.6 118.28 367.347 120.147 353.907 123.88C340.654 127.427 328.427 132.653 317.227 139.56C306.027 146.28 296.974 154.307 290.067 163.64C283.347 172.973 279.987 183.24 279.987 194.44C279.987 201.347 281.854 207.32 285.587 212.36C289.134 217.4 293.894 221.507 299.867 224.68C305.84 227.853 312.374 230.187 319.467 231.68C326.747 233.173 333.934 233.92 341.027 233.92C352.974 233.92 364.92 232.147 376.867 228.6C389 224.867 400.854 220.013 412.427 214.04C424 208.067 434.827 201.627 444.907 194.72C454.987 187.627 464.04 180.627 472.067 173.72C472.067 173.72 472.254 173.627 472.627 173.44C473.187 173.253 473.56 173.16 473.747 173.16H523.027C524.894 173.16 525.827 174.093 525.827 175.96C525.827 177.827 524.894 178.76 523.027 178.76H474.867C466.84 185.667 457.694 192.667 447.427 199.76C437.16 206.853 426.147 213.387 414.387 219.36C402.627 225.333 390.494 230.187 377.987 233.92C365.667 237.653 353.347 239.52 341.027 239.52ZM558.867 210.4C552.894 210.4 548.694 209 546.267 206.2C543.84 203.213 542.627 199.573 542.627 195.28C542.627 190.24 543.654 184.827 545.707 179.04C547.947 173.253 550.374 167.84 552.987 162.8C555.6 157.76 557.654 154.027 559.147 151.6C562.88 145.253 567.64 137.787 573.427 129.2C579.214 120.613 585.374 111.84 591.907 102.88C598.627 93.92 604.88 85.7067 610.667 78.24C611.227 77.4934 611.974 77.12 612.907 77.12C613.84 77.12 614.68 77.68 615.427 78.8C616.174 79.7334 616.08 80.6667 615.147 81.6C614.214 82.72 611.88 85.6133 608.147 90.28C604.6 94.9467 600.307 100.733 595.267 107.64C590.227 114.36 585 121.827 579.587 130.04C574.174 138.067 569.04 146.187 564.187 154.4C559.52 162.427 555.694 169.987 552.707 177.08C549.72 183.987 548.227 189.773 548.227 194.44C548.227 201.347 551.774 204.8 558.867 204.8C564.094 204.8 569.974 203.587 576.507 201.16C583.227 198.547 589.854 194.907 596.387 190.24C602.92 185.573 608.52 180.253 613.187 174.28C613.747 173.533 614.494 173.16 615.427 173.16C616.36 173.16 617.107 173.72 617.667 174.84C618.414 175.96 618.32 176.987 617.387 177.92C612.72 184.08 606.934 189.68 600.027 194.72C593.12 199.573 586.027 203.4 578.747 206.2C571.654 209 565.027 210.4 558.867 210.4ZM506.227 165.04C503.614 165.04 500.907 165.04 498.107 165.04C495.494 164.853 492.694 164.76 489.707 164.76C487.84 164.76 486.907 163.827 486.907 161.96C486.907 160.093 487.84 159.16 489.707 159.16C492.134 159.16 494.654 159.253 497.267 159.44C499.88 159.44 502.494 159.44 505.107 159.44C507.907 159.44 510.707 159.347 513.507 159.16C516.494 158.973 519.387 158.507 522.187 157.76C525.92 156.827 529.28 155.333 532.267 153.28C535.254 151.227 538.334 147.96 541.507 143.48C547.854 134.893 554.2 126.493 560.547 118.28C566.894 110.067 572.68 102.787 577.907 96.44C583.32 90.0933 587.614 85.4267 590.787 82.44C591.347 81.88 592 81.6 592.747 81.6C593.68 81.6 594.427 82.16 594.987 83.28C595.734 84.4 595.547 85.4267 594.427 86.36C591.44 89.3467 587.334 94.0134 582.107 100.36C576.88 106.52 571.094 113.707 564.747 121.92C558.587 129.947 552.334 138.253 545.987 146.84C540.2 154.867 534.04 159.907 527.507 161.96C520.974 164.013 513.88 165.04 506.227 165.04ZM503.147 152.44C501.28 152.44 500.347 151.507 500.347 149.64C500.347 148.707 500.72 147.96 501.467 147.4C505.76 143.853 511.454 139.187 518.547 133.4C525.64 127.427 533.014 121.173 540.667 114.64C548.507 107.92 555.6 101.853 561.947 96.44C562.32 96.0667 562.88 95.88 563.627 95.88C565.68 95.88 566.707 96.9067 566.707 98.96C566.707 99.52 566.334 100.173 565.587 100.92C559.24 106.333 552.147 112.307 544.307 118.84C536.654 125.373 529.28 131.627 522.187 137.6C515.094 143.387 509.307 148.147 504.827 151.88C504.454 152.253 503.894 152.44 503.147 152.44ZM547.107 231.4C543.187 231.4 538.707 230.56 533.667 228.88C528.814 227.2 524.52 224.4 520.787 220.48C517.24 216.56 515.467 211.24 515.467 204.52C515.467 202.467 515.654 200.413 516.027 198.36C516.4 196.307 516.96 194.067 517.707 191.64C518.267 190.333 519.107 189.68 520.227 189.68C521.16 189.68 521.907 190.053 522.467 190.8C523.214 191.36 523.4 192.2 523.027 193.32C521.72 197.24 521.067 200.88 521.067 204.24C521.067 209.653 522.467 213.947 525.267 217.12C528.067 220.293 531.52 222.533 535.627 223.84C539.734 225.147 543.56 225.8 547.107 225.8C554.014 225.8 561.014 224.213 568.107 221.04C575.2 217.867 582.014 214.133 588.547 209.84C589.294 209.467 589.76 209.28 589.947 209.28C590.88 209.28 591.534 209.653 591.907 210.4C592.467 210.96 592.747 211.613 592.747 212.36C592.747 213.293 592.374 214.04 591.627 214.6C584.907 218.893 577.72 222.813 570.067 226.36C562.414 229.72 554.76 231.4 547.107 231.4Z" fill="white"/>
<path d="M681.231 236.16C676.378 236.16 671.151 235.6 665.551 234.48C660.138 233.36 654.911 231.587 649.871 229.16C645.018 226.733 641.005 223.467 637.831 219.36C634.845 215.253 633.351 210.213 633.351 204.24C633.351 195.467 635.871 187.44 640.911 180.16C646.138 172.88 652.858 166.627 661.071 161.4C669.471 156.173 678.618 152.16 688.511 149.36C698.591 146.56 708.485 145.16 718.191 145.16C721.365 145.16 725.938 145.533 731.911 146.28C737.885 147.027 743.858 148.333 749.831 150.2C755.991 152.067 760.938 154.773 764.671 158.32C766.725 160.187 768.125 162.053 768.871 163.92C769.618 165.787 769.991 167.747 769.991 169.8C769.991 173.347 768.685 176.333 766.071 178.76C776.338 169.987 786.231 160.467 795.751 150.2C805.458 139.933 814.605 129.573 823.191 119.12C831.778 108.48 839.711 98.4 846.991 88.88C854.271 79.1734 860.711 70.7733 866.311 63.68C866.871 62.9333 867.618 62.56 868.551 62.56C869.485 62.56 870.325 63.12 871.071 64.24C871.818 65.1734 871.725 66.1067 870.791 67.04C863.885 75.8134 856.231 85.6134 847.831 96.44C839.618 107.267 830.658 118.467 820.951 130.04C811.431 141.427 801.351 152.533 790.711 163.36C780.258 174 769.338 183.613 757.951 192.2C746.751 200.787 735.271 207.6 723.511 212.64C711.938 217.68 700.271 220.2 688.511 220.2C676.751 220.2 668.165 218.147 662.751 214.04C657.338 209.933 654.631 204.987 654.631 199.2C654.631 193.227 657.151 187.16 662.191 181C667.418 174.84 674.698 169.707 684.031 165.6C693.551 161.307 704.658 159.16 717.351 159.16C726.311 159.16 733.685 160.747 739.471 163.92C745.258 167.093 749.551 169.987 752.351 172.6C754.965 174.84 757.205 175.96 759.071 175.96C760.565 175.96 761.778 175.4 762.711 174.28C763.645 172.973 764.111 171.573 764.111 170.08C764.111 166.347 762.338 163.267 758.791 160.84C755.245 158.413 750.858 156.453 745.631 154.96C740.405 153.467 735.271 152.44 730.231 151.88C725.191 151.133 721.178 150.76 718.191 150.76C709.045 150.76 699.805 152.067 690.471 154.68C681.325 157.293 672.831 161.027 664.991 165.88C657.338 170.547 651.085 176.147 646.231 182.68C641.565 189.027 639.231 196.027 639.231 203.68C639.231 210.027 641.285 215.16 645.391 219.08C649.685 223 655.005 225.893 661.351 227.76C667.885 229.627 674.511 230.56 681.231 230.56C689.631 230.56 699.338 229.347 710.351 226.92C721.365 224.493 733.218 220.2 745.911 214.04C758.791 207.693 772.045 198.92 785.671 187.72C799.485 176.333 813.205 161.773 826.831 144.04C834.671 133.96 842.325 124.067 849.791 114.36C857.445 104.467 864.258 95.6 870.231 87.76C876.205 79.7334 880.965 73.3867 884.511 68.72C888.245 63.8667 890.111 61.44 890.111 61.44C890.671 60.6934 891.325 60.32 892.071 60.32C893.565 60.32 895.898 61.44 899.071 63.68C902.431 65.92 905.418 67.04 908.031 67.04C911.391 67.04 913.538 65.1734 914.471 61.44C915.405 58.2667 914.378 55.28 911.391 52.48C908.405 49.4934 904.578 46.88 899.911 44.64C895.431 42.4 891.045 40.5334 886.751 39.04C882.458 37.5467 879.378 36.52 877.511 35.96C865.565 32.2267 852.218 29.3333 837.471 27.28C822.725 25.2267 808.911 24.2 796.031 24.2C790.058 24.2 782.778 24.3867 774.191 24.76C765.791 25.1334 756.831 25.9734 747.311 27.28C737.978 28.4 728.738 30.2667 719.591 32.88C710.445 35.3067 702.325 38.5733 695.231 42.68C688.138 46.7867 681.885 52.0134 676.471 58.36C671.058 64.52 668.351 71.3333 668.351 78.8C668.351 82.72 668.818 85.6134 669.751 87.48C670.685 89.16 671.618 90 672.551 90C674.605 90 675.631 88.1334 675.631 84.4C675.631 77.3067 677.965 70.7734 682.631 64.8C687.485 58.8267 692.338 54.2533 697.191 51.08C706.711 44.7333 719.311 40.0667 734.991 37.08C750.858 34.0934 767.285 32.6 784.271 32.6C796.218 32.6 807.978 33.3467 819.551 34.84C831.125 36.1467 841.765 38.2 851.471 41C861.365 43.8 869.485 47.3467 875.831 51.64C876.765 52.0134 877.231 52.76 877.231 53.88C877.231 54.8134 876.765 55.6534 875.831 56.4C875.085 56.96 874.151 56.8667 873.031 56.12C866.871 52.2 859.031 48.9334 849.511 46.32C840.178 43.52 829.911 41.4667 818.711 40.16C807.511 38.6667 796.125 37.92 784.551 37.92C767.938 37.92 751.978 39.4134 736.671 42.4C721.551 45.2 709.511 49.5867 700.551 55.56C695.885 58.7334 691.498 63.0267 687.391 68.44C683.285 73.6667 681.231 78.9867 681.231 84.4C681.231 87.9467 680.298 90.7467 678.431 92.8C676.751 94.6667 674.791 95.6 672.551 95.6C670.125 95.6 667.885 94.2934 665.831 91.68C663.778 88.88 662.751 84.5867 662.751 78.8C662.751 72.8267 664.151 67.2267 666.951 62C669.938 56.7734 673.671 52.1067 678.151 48C682.818 43.8933 687.578 40.44 692.431 37.64C699.898 33.3467 708.298 29.9867 717.631 27.56C727.151 24.9467 736.765 22.9867 746.471 21.68C756.365 20.3734 765.605 19.5333 774.191 19.16C782.965 18.7867 790.245 18.6 796.031 18.6C803.311 18.6 812.085 19.0667 822.351 20C832.618 20.9333 843.258 22.4267 854.271 24.48C865.285 26.5333 875.645 29.1467 885.351 32.32C895.245 35.4934 903.365 39.32 909.711 43.8C912.698 45.8534 915.218 48.1867 917.271 50.8C919.325 53.4133 920.351 56.3067 920.351 59.48C920.351 62.6534 919.325 65.64 917.271 68.44C915.218 71.24 912.325 72.64 908.591 72.64C905.978 72.64 903.271 72.08 900.471 70.96C897.671 69.6533 895.151 68.3467 892.911 67.04C891.231 69.28 888.338 73.1067 884.231 78.52C880.311 83.7467 875.458 90.0934 869.671 97.56C864.071 104.84 857.911 112.773 851.191 121.36C844.658 129.947 838.031 138.627 831.311 147.4C817.311 165.507 803.311 180.347 789.311 191.92C775.311 203.493 761.685 212.547 748.431 219.08C735.365 225.427 723.045 229.813 711.471 232.24C700.085 234.853 690.005 236.16 681.231 236.16ZM660.231 198.92C660.231 203.213 662.471 206.947 666.951 210.12C671.431 213.107 678.618 214.6 688.511 214.6C701.578 214.6 714.551 211.24 727.431 204.52C740.498 197.8 753.285 189.213 765.791 178.76C763.738 180.44 761.498 181.28 759.071 181.28C755.338 181.28 751.791 179.693 748.431 176.52C746.005 174.28 742.178 171.76 736.951 168.96C731.911 166.16 725.378 164.76 717.351 164.76C706.151 164.76 696.258 166.627 687.671 170.36C679.085 173.907 672.365 178.387 667.511 183.8C662.658 189.027 660.231 194.067 660.231 198.92Z" fill="white"/>
<path d="M916.311 236.16C911.458 236.16 906.231 235.6 900.631 234.48C895.218 233.36 889.991 231.587 884.951 229.16C880.098 226.733 876.084 223.467 872.911 219.36C869.924 215.253 868.431 210.213 868.431 204.24C868.431 195.467 870.951 187.44 875.991 180.16C881.218 172.88 887.938 166.627 896.151 161.4C904.551 156.173 913.698 152.16 923.591 149.36C933.671 146.56 943.564 145.16 953.271 145.16C956.444 145.16 961.018 145.533 966.991 146.28C972.964 147.027 978.938 148.333 984.911 150.2C991.071 152.067 996.018 154.773 999.751 158.32C1001.8 160.187 1003.2 162.053 1003.95 163.92C1004.7 165.787 1005.07 167.747 1005.07 169.8C1005.07 173.347 1003.76 176.333 1001.15 178.76C1011.42 169.987 1021.31 160.467 1030.83 150.2C1040.54 139.933 1049.68 129.573 1058.27 119.12C1066.86 108.48 1074.79 98.4 1082.07 88.88C1089.35 79.1734 1095.79 70.7733 1101.39 63.68C1101.95 62.9333 1102.7 62.56 1103.63 62.56C1104.56 62.56 1105.4 63.12 1106.15 64.24C1106.9 65.1734 1106.8 66.1067 1105.87 67.04C1098.96 75.8134 1091.31 85.6134 1082.91 96.44C1074.7 107.267 1065.74 118.467 1056.03 130.04C1046.51 141.427 1036.43 152.533 1025.79 163.36C1015.34 174 1004.42 183.613 993.031 192.2C981.831 200.787 970.351 207.6 958.591 212.64C947.018 217.68 935.351 220.2 923.591 220.2C911.831 220.2 903.244 218.147 897.831 214.04C892.418 209.933 889.711 204.987 889.711 199.2C889.711 193.227 892.231 187.16 897.271 181C902.498 174.84 909.778 169.707 919.111 165.6C928.631 161.307 939.738 159.16 952.431 159.16C961.391 159.16 968.764 160.747 974.551 163.92C980.338 167.093 984.631 169.987 987.431 172.6C990.044 174.84 992.284 175.96 994.151 175.96C995.644 175.96 996.858 175.4 997.791 174.28C998.724 172.973 999.191 171.573 999.191 170.08C999.191 166.347 997.418 163.267 993.871 160.84C990.324 158.413 985.938 156.453 980.711 154.96C975.484 153.467 970.351 152.44 965.311 151.88C960.271 151.133 956.258 150.76 953.271 150.76C944.124 150.76 934.884 152.067 925.551 154.68C916.404 157.293 907.911 161.027 900.071 165.88C892.418 170.547 886.164 176.147 881.311 182.68C876.644 189.027 874.311 196.027 874.311 203.68C874.311 210.027 876.364 215.16 880.471 219.08C884.764 223 890.084 225.893 896.431 227.76C902.964 229.627 909.591 230.56 916.311 230.56C924.711 230.56 934.418 229.347 945.431 226.92C956.444 224.493 968.298 220.2 980.991 214.04C993.871 207.693 1007.12 198.92 1020.75 187.72C1034.56 176.333 1048.28 161.773 1061.91 144.04C1069.75 133.96 1077.4 124.067 1084.87 114.36C1092.52 104.467 1099.34 95.6 1105.31 87.76C1111.28 79.7334 1116.04 73.3867 1119.59 68.72C1123.32 63.8667 1125.19 61.44 1125.19 61.44C1125.75 60.6934 1126.4 60.32 1127.15 60.32C1128.64 60.32 1130.98 61.44 1134.15 63.68C1137.51 65.92 1140.5 67.04 1143.11 67.04C1146.47 67.04 1148.62 65.1734 1149.55 61.44C1150.48 58.2667 1149.46 55.28 1146.47 52.48C1143.48 49.4934 1139.66 46.88 1134.99 44.64C1130.51 42.4 1126.12 40.5334 1121.83 39.04C1117.54 37.5467 1114.46 36.52 1112.59 35.96C1100.64 32.2267 1087.3 29.3333 1072.55 27.28C1057.8 25.2267 1043.99 24.2 1031.11 24.2C1025.14 24.2 1017.86 24.3867 1009.27 24.76C1000.87 25.1334 991.911 25.9734 982.391 27.28C973.058 28.4 963.818 30.2667 954.671 32.88C945.524 35.3067 937.404 38.5733 930.311 42.68C923.218 46.7867 916.964 52.0134 911.551 58.36C906.138 64.52 903.431 71.3333 903.431 78.8C903.431 82.72 903.898 85.6134 904.831 87.48C905.764 89.16 906.698 90 907.631 90C909.684 90 910.711 88.1334 910.711 84.4C910.711 77.3067 913.044 70.7734 917.711 64.8C922.564 58.8267 927.418 54.2533 932.271 51.08C941.791 44.7333 954.391 40.0667 970.071 37.08C985.938 34.0934 1002.36 32.6 1019.35 32.6C1031.3 32.6 1043.06 33.3467 1054.63 34.84C1066.2 36.1467 1076.84 38.2 1086.55 41C1096.44 43.8 1104.56 47.3467 1110.91 51.64C1111.84 52.0134 1112.31 52.76 1112.31 53.88C1112.31 54.8134 1111.84 55.6534 1110.91 56.4C1110.16 56.96 1109.23 56.8667 1108.11 56.12C1101.95 52.2 1094.11 48.9334 1084.59 46.32C1075.26 43.52 1064.99 41.4667 1053.79 40.16C1042.59 38.6667 1031.2 37.92 1019.63 37.92C1003.02 37.92 987.058 39.4134 971.751 42.4C956.631 45.2 944.591 49.5867 935.631 55.56C930.964 58.7334 926.578 63.0267 922.471 68.44C918.364 73.6667 916.311 78.9867 916.311 84.4C916.311 87.9467 915.378 90.7467 913.511 92.8C911.831 94.6667 909.871 95.6 907.631 95.6C905.204 95.6 902.964 94.2934 900.911 91.68C898.858 88.88 897.831 84.5867 897.831 78.8C897.831 72.8267 899.231 67.2267 902.031 62C905.018 56.7734 908.751 52.1067 913.231 48C917.898 43.8933 922.658 40.44 927.511 37.64C934.978 33.3467 943.378 29.9867 952.711 27.56C962.231 24.9467 971.844 22.9867 981.551 21.68C991.444 20.3734 1000.68 19.5333 1009.27 19.16C1018.04 18.7867 1025.32 18.6 1031.11 18.6C1038.39 18.6 1047.16 19.0667 1057.43 20C1067.7 20.9333 1078.34 22.4267 1089.35 24.48C1100.36 26.5333 1110.72 29.1467 1120.43 32.32C1130.32 35.4934 1138.44 39.32 1144.79 43.8C1147.78 45.8534 1150.3 48.1867 1152.35 50.8C1154.4 53.4133 1155.43 56.3067 1155.43 59.48C1155.43 62.6534 1154.4 65.64 1152.35 68.44C1150.3 71.24 1147.4 72.64 1143.67 72.64C1141.06 72.64 1138.35 72.08 1135.55 70.96C1132.75 69.6533 1130.23 68.3467 1127.99 67.04C1126.31 69.28 1123.42 73.1067 1119.31 78.52C1115.39 83.7467 1110.54 90.0934 1104.75 97.56C1099.15 104.84 1092.99 112.773 1086.27 121.36C1079.74 129.947 1073.11 138.627 1066.39 147.4C1052.39 165.507 1038.39 180.347 1024.39 191.92C1010.39 203.493 996.764 212.547 983.511 219.08C970.444 225.427 958.124 229.813 946.551 232.24C935.164 234.853 925.084 236.16 916.311 236.16ZM895.311 198.92C895.311 203.213 897.551 206.947 902.031 210.12C906.511 213.107 913.698 214.6 923.591 214.6C936.658 214.6 949.631 211.24 962.511 204.52C975.578 197.8 988.364 189.213 1000.87 178.76C998.818 180.44 996.578 181.28 994.151 181.28C990.418 181.28 986.871 179.693 983.511 176.52C981.084 174.28 977.258 171.76 972.031 168.96C966.991 166.16 960.458 164.76 952.431 164.76C941.231 164.76 931.338 166.627 922.751 170.36C914.164 173.907 907.444 178.387 902.591 183.8C897.738 189.027 895.311 194.067 895.311 198.92Z" fill="white"/>
<path d="M1097.63 120.8C1096.51 120.8 1095.67 120.24 1095.11 119.12C1089.88 108.853 1087.27 98.4933 1087.27 88.04C1087.27 78.52 1089.23 69.4667 1093.15 60.88C1097.07 52.1067 1102.48 44.36 1109.39 37.64C1116.3 30.92 1124.23 25.6 1133.19 21.68C1142.34 17.76 1152.04 15.8 1162.31 15.8C1171.83 15.8 1180.6 17.1067 1188.63 19.72C1196.84 22.3333 1204.78 25.4133 1212.43 28.96C1220.27 32.32 1228.3 35.3067 1236.51 37.92C1244.91 40.5333 1253.87 41.84 1263.39 41.84C1269.92 41.84 1275.43 41.28 1279.91 40.16C1284.39 38.8533 1287.84 37.36 1290.27 35.68C1291.95 34.56 1293.63 33.8134 1295.31 33.44C1296.99 32.88 1298.48 32.6 1299.79 32.6C1302.59 32.6 1304.83 33.44 1306.51 35.12C1308.19 36.8 1309.03 38.8534 1309.03 41.28C1309.03 43.3334 1308.38 45.48 1307.07 47.72C1305.76 49.7733 1303.62 51.64 1300.63 53.32C1294.66 56.8667 1288.22 59.48 1281.31 61.16C1274.4 62.6534 1267.4 63.4 1260.31 63.4C1248.55 63.4 1237.26 61.5334 1226.43 57.8C1218.96 55.3734 1211.78 52.76 1204.87 49.96C1197.96 46.9734 1190.96 44.4534 1183.87 42.4C1176.96 40.16 1169.4 39.04 1161.19 39.04C1160.07 39.04 1158.95 39.04 1157.83 39.04C1156.71 39.04 1155.5 39.1333 1154.19 39.32C1145.79 40.0667 1138.32 42.7734 1131.79 47.44C1125.26 52.1067 1120.12 58.08 1116.39 65.36C1112.66 72.4534 1110.79 80.3867 1110.79 89.16C1110.79 97.3734 1112.56 105.587 1116.11 113.8C1116.3 113.987 1116.48 114.36 1116.67 114.92C1116.86 115.293 1116.95 115.667 1116.95 116.04C1116.95 117.907 1115.92 118.84 1113.87 118.84C1112.94 118.84 1112.19 118.28 1111.63 117.16C1107.52 107.827 1105.47 98.4934 1105.47 89.16C1105.47 79.64 1107.43 70.8667 1111.35 62.84C1115.46 54.6267 1121.15 47.9067 1128.43 42.68C1135.71 37.4534 1144.11 34.4667 1153.63 33.72C1155.12 33.5334 1156.43 33.44 1157.55 33.44C1158.86 33.44 1160.16 33.44 1161.47 33.44C1170.24 33.44 1178.36 34.56 1185.83 36.8C1193.3 39.04 1200.58 41.6533 1207.67 44.64C1214.76 47.6267 1221.95 50.4267 1229.23 53.04C1236.51 55.4667 1244.35 56.96 1252.75 57.52C1253.87 57.52 1254.99 57.6134 1256.11 57.8C1257.23 57.8 1258.35 57.8 1259.47 57.8C1267.31 57.8 1274.5 56.96 1281.03 55.28C1287.56 53.6 1293.16 51.36 1297.83 48.56C1301.56 46.5067 1303.43 44.08 1303.43 41.28C1303.43 39.2267 1302.22 38.2 1299.79 38.2C1297.74 38.2 1295.59 38.9467 1293.35 40.44C1289.43 42.8667 1284.95 44.64 1279.91 45.76C1274.87 46.88 1269.64 47.44 1264.23 47.44C1258.26 47.44 1252.19 46.88 1246.03 45.76C1240.06 44.64 1234.64 43.24 1229.79 41.56C1222.14 38.9467 1214.76 36.0533 1207.67 32.88C1200.58 29.7067 1193.39 27 1186.11 24.76C1179.02 22.52 1171.27 21.4 1162.87 21.4C1153.16 21.4 1144.02 23.2667 1135.43 27C1127.03 30.5467 1119.66 35.4933 1113.31 41.84C1106.96 48 1101.92 55.0933 1098.19 63.12C1094.64 70.96 1092.87 79.2667 1092.87 88.04C1092.87 97.9333 1095.3 107.453 1100.15 116.6C1100.34 116.973 1100.43 117.44 1100.43 118C1100.43 119.867 1099.5 120.8 1097.63 120.8ZM1134.87 145.16C1127.96 145.16 1122.92 143.853 1119.75 141.24C1116.58 138.627 1114.99 135.733 1114.99 132.56C1114.99 129.2 1116.58 126.12 1119.75 123.32C1123.11 120.333 1127.96 118.84 1134.31 118.84C1138.98 118.84 1143.46 119.12 1147.75 119.68C1152.23 120.053 1156.62 120.613 1160.91 121.36C1163.71 118.187 1167.72 113.707 1172.95 107.92C1178.18 102.133 1183.68 96.16 1189.47 90C1195.44 83.6534 1201.04 77.96 1206.27 72.92C1211.68 67.88 1215.88 64.4267 1218.87 62.56C1220.92 61.44 1222.98 60.88 1225.03 60.88C1228.2 60.88 1231.19 62 1233.99 64.24C1236.79 66.48 1238.19 69 1238.19 71.8C1238.19 74.4134 1236.88 76.7467 1234.27 78.8C1231.28 81.04 1228.48 83.56 1225.87 86.36C1223.26 88.9734 1220.46 91.8667 1217.47 95.04C1214.48 98.2134 1211.12 101.76 1207.39 105.68C1203.84 109.413 1199.64 113.613 1194.79 118.28C1194.23 118.84 1193.58 119.12 1192.83 119.12C1191.71 119.12 1190.87 118.56 1190.31 117.44C1189.75 116.32 1189.94 115.293 1190.87 114.36C1197.4 108.2 1204.03 101.293 1210.75 93.64C1217.47 85.9867 1224.1 79.5467 1230.63 74.32C1231.75 73.3867 1232.31 72.4533 1232.31 71.52C1232.31 70.0267 1231.47 68.8134 1229.79 67.88C1228.3 66.9467 1226.62 66.48 1224.75 66.48C1223.63 66.48 1222.6 66.76 1221.67 67.32C1218.68 69 1214.58 72.4533 1209.35 77.68C1204.12 82.72 1198.52 88.4134 1192.55 94.76C1186.58 101.107 1180.98 107.173 1175.75 112.96C1170.71 118.56 1166.79 122.947 1163.99 126.12C1163.43 126.68 1162.59 126.96 1161.47 126.96C1157.18 126.4 1152.79 125.84 1148.31 125.28C1143.83 124.72 1139.16 124.44 1134.31 124.44C1130.02 124.44 1126.66 125.28 1124.23 126.96C1121.8 128.64 1120.59 130.507 1120.59 132.56C1120.59 134.427 1121.71 136.107 1123.95 137.6C1126.38 138.907 1130.02 139.56 1134.87 139.56C1136.74 139.56 1137.67 140.493 1137.67 142.36C1137.67 144.227 1136.74 145.16 1134.87 145.16ZM1139.91 232.52C1127.22 232.52 1118.35 230.467 1113.31 226.36C1108.27 222.253 1105.75 217.027 1105.75 210.68C1105.75 205.453 1106.96 199.853 1109.39 193.88C1111.82 187.907 1114.8 181.933 1118.35 175.96C1122.08 169.987 1125.91 164.387 1129.83 159.16C1133.75 153.933 1137.11 149.547 1139.91 146C1140.47 145.253 1141.12 144.88 1141.87 144.88C1142.8 144.88 1143.64 145.44 1144.39 146.56C1145.14 147.493 1145.04 148.427 1144.11 149.36C1140.75 153.467 1137.11 158.227 1133.19 163.64C1129.46 169.053 1125.82 174.653 1122.27 180.44C1118.91 186.04 1116.11 191.547 1113.87 196.96C1111.82 202.187 1110.79 206.76 1110.79 210.68C1110.79 217.027 1113.78 221.32 1119.75 223.56C1125.72 225.8 1132.44 226.92 1139.91 226.92C1146.82 226.92 1154.75 226.64 1163.71 226.08C1172.67 225.52 1182 224.587 1191.71 223.28C1201.6 221.973 1211.22 220.387 1220.55 218.52C1229.88 216.467 1238.47 214.04 1246.31 211.24C1247.99 210.68 1249.76 209.28 1251.63 207.04C1253.68 204.613 1254.34 202.467 1253.59 200.6C1253.59 200.6 1253.4 200.6 1253.03 200.6C1252.84 200.413 1252.56 200.32 1252.19 200.32C1251.26 200.32 1249.76 200.693 1247.71 201.44C1244.54 202.747 1239.22 204.24 1231.75 205.92C1224.28 207.6 1215.88 209.28 1206.55 210.96C1197.22 212.453 1188.07 213.76 1179.11 214.88C1170.15 215.813 1162.59 216.28 1156.43 216.28C1148.4 216.28 1142.8 214.88 1139.63 212.08C1136.46 209.28 1134.87 205.733 1134.87 201.44C1134.87 196.587 1136.18 191.267 1138.79 185.48C1141.59 179.693 1144.95 174 1148.87 168.4C1152.79 162.613 1156.43 157.573 1159.79 153.28C1163.34 148.8 1165.95 145.627 1167.63 143.76C1168.19 143.2 1168.94 142.92 1169.87 142.92H1180.23C1186.39 142.92 1193.76 142.827 1202.35 142.64C1211.12 142.453 1220.27 142.08 1229.79 141.52C1239.31 140.96 1248.27 140.12 1256.67 139C1265.26 137.88 1272.35 136.48 1277.95 134.8C1279.07 134.427 1280.75 133.587 1282.99 132.28C1285.23 130.973 1287.19 129.387 1288.87 127.52C1290.74 125.653 1291.48 123.787 1291.11 121.92H1289.99C1289.62 121.92 1289.06 122.013 1288.31 122.2C1287.75 122.2 1286.91 122.387 1285.79 122.76C1280 124.813 1272.63 126.307 1263.67 127.24C1254.9 128.173 1245.47 128.827 1235.39 129.2C1225.5 129.387 1215.98 129.48 1206.83 129.48H1182.19C1180.32 129.48 1179.39 128.547 1179.39 126.68C1179.39 124.813 1180.32 123.88 1182.19 123.88H1207.11C1216.07 123.88 1225.4 123.787 1235.11 123.6C1244.82 123.227 1253.96 122.573 1262.55 121.64C1271.32 120.707 1278.42 119.307 1283.83 117.44C1286.07 116.693 1288.12 116.32 1289.99 116.32C1294.47 116.32 1296.71 118.373 1296.71 122.48C1296.71 125.467 1295.22 128.733 1292.23 132.28C1289.43 135.827 1285.23 138.44 1279.63 140.12C1273.84 141.987 1266.56 143.48 1257.79 144.6C1249.02 145.72 1239.78 146.56 1230.07 147.12C1220.55 147.68 1211.4 148.053 1202.63 148.24C1193.86 148.427 1186.39 148.52 1180.23 148.52H1171.27C1166.98 153.373 1162.4 158.973 1157.55 165.32C1152.88 171.667 1148.87 178.107 1145.51 184.64C1142.15 190.987 1140.47 196.68 1140.47 201.72C1140.47 204.333 1141.22 206.293 1142.71 207.6C1144.39 208.907 1146.72 209.84 1149.71 210.4C1150.64 210.587 1151.67 210.773 1152.79 210.96C1153.91 210.96 1155.12 210.96 1156.43 210.96C1162.22 210.96 1169.5 210.493 1178.27 209.56C1187.04 208.44 1196 207.133 1205.15 205.64C1214.48 203.96 1222.79 202.28 1230.07 200.6C1237.54 198.92 1242.76 197.52 1245.75 196.4C1248.55 195.28 1250.88 194.72 1252.75 194.72C1255.18 194.72 1256.86 195.373 1257.79 196.68C1258.91 197.987 1259.47 199.573 1259.47 201.44C1259.47 204.053 1258.44 206.853 1256.39 209.84C1254.52 212.827 1251.82 214.973 1248.27 216.28C1240.24 219.08 1231.38 221.507 1221.67 223.56C1212.15 225.613 1202.44 227.293 1192.55 228.6C1182.66 229.907 1173.14 230.84 1163.99 231.4C1155.03 232.147 1147 232.52 1139.91 232.52Z" fill="white"/>
</svg>
