<svg width="1546" height="258" viewBox="0 0 1546 258" fill="none" xmlns="http://www.w3.org/2000/svg">
<path d="M7 211.752V141.752H26.8V196.052H60.2V211.752H7ZM65.3187 211.752L96.2188 141.752H115.719L146.719 211.752H126.119L101.919 151.452H109.719L85.5188 211.752H65.3187ZM82.2188 198.152L87.3188 183.552H121.519L126.619 198.152H82.2188ZM168.716 211.752V157.452H147.216V141.752H209.916V157.452H188.516V211.752H168.716ZM238.17 211.752V157.452H216.67V141.752H279.37V157.452H257.97V211.752H238.17ZM309.946 168.852H342.446V183.652H309.946V168.852ZM311.346 196.452H347.946V211.752H291.746V141.752H346.646V157.052H311.346V196.452Z" fill="#FF5C00"/>
<path d="M490 245.5C476.167 245.5 463.333 243.333 451.5 239C439.667 234.5 429.417 228.167 420.75 220C412.25 211.833 405.583 202.25 400.75 191.25C395.917 180.083 393.5 167.833 393.5 154.5C393.5 141.167 395.917 129 400.75 118C405.583 106.833 412.333 97.1667 421 89C429.667 80.8333 439.917 74.5833 451.75 70.25C463.75 65.75 476.833 63.5 491 63.5C507.5 63.5 522.25 66.25 535.25 71.75C548.25 77.25 559 85.1667 567.5 95.5L536 124C530 117.5 523.5 112.667 516.5 109.5C509.667 106.167 502 104.5 493.5 104.5C486 104.5 479.167 105.667 473 108C466.833 110.333 461.583 113.75 457.25 118.25C452.917 122.583 449.5 127.833 447 134C444.667 140 443.5 146.833 443.5 154.5C443.5 161.833 444.667 168.583 447 174.75C449.5 180.917 452.917 186.25 457.25 190.75C461.583 195.083 466.75 198.5 472.75 201C478.917 203.333 485.667 204.5 493 204.5C500.333 204.5 507.5 203.333 514.5 201C521.5 198.5 528.583 194.333 535.75 188.5L563.5 223.25C553.5 230.417 541.917 235.917 528.75 239.75C515.583 243.583 502.667 245.5 490 245.5ZM519.75 216.75V150.75H563.5V223.25L519.75 216.75ZM598.883 242L676.133 67H724.883L802.383 242H750.883L690.383 91.25H709.883L649.383 242H598.883ZM641.133 208L653.883 171.5H739.383L752.133 208H641.133ZM841.416 242V67H882.166L954.666 186H933.166L1003.67 67H1044.42L1044.92 242H999.416L998.916 136.25H1006.67L953.916 224.75H931.916L877.666 136.25H887.166V242H841.416ZM1096.19 242V211L1199.19 88.75L1205.19 106.25H1098.44V67H1249.19V98L1146.19 220.25L1140.19 202.75H1252.94V242H1096.19ZM1278.62 242L1355.87 67H1404.62L1482.12 242H1430.62L1370.12 91.25H1389.62L1329.12 242H1278.62ZM1320.87 208L1333.62 171.5H1419.12L1431.87 208H1320.87Z" fill="#FF5C00"/>
</svg>
