<svg xmlns="http://www.w3.org/2000/svg" viewBox="0 0 382.15 65.68"><defs><style>.cls-1{fill:#fff;}</style></defs><g id="Layer_2" data-name="Layer 2"><g id="Layer_1-2" data-name="Layer 1"><path class="cls-1" d="M24.22,17.05H11.32V47.29H0V8.12H24.22Zm-7.8,25.32a99.63,99.63,0,0,0,10.4-1.16l.74,9a95.61,95.61,0,0,1-10.63,1.34q-5.22.35-12.11.42H0V42.65H4.82C9.18,42.65,13,42.55,16.42,42.37ZM40.36,62.83H30.06V1.73h10.3ZM305.74,34.67,37.07,33.73l0-8.9,268.66,1ZM314.15,65H303.6V0h10.55Z"/><path class="cls-1" d="M341.68,42.13q9.52-.32,17.89-1.37l.5,8a145.24,145.24,0,0,1-18,2.18q-9.39.55-20.32.63l-1.16-9.1Q332.16,42.45,341.68,42.13ZM358.27,15h-36V6h36ZM338,44.91H327V13.23H338Zm15.44,0H342.52V13.23h10.87Zm19.93,20.77H362V.65h11.32Zm8.83-32H370.86V24.62h11.29Z"/></g></g></svg>