<svg xmlns="http://www.w3.org/2000/svg" viewBox="0 0 411.1 65.25"><defs><style>.cls-1{fill:#fff;}</style></defs><g id="Layer_2" data-name="Layer 2"><g id="Layer_1-2" data-name="Layer 1"><path class="cls-1" d="M60.82,94.05H1.55V85H60.82ZM7.24,69l-1.3-8.89,40.64-1.27v8.37ZM49,50H8v-9H49ZM55.37,59q-.13,4.38-.84,10T52.38,81.5l-11.21-1A103.76,103.76,0,0,0,43.4,68.77q.69-5.47.84-9.86t.16-10.49V41.07H55.51v7.35C55.51,52.54,55.46,56.07,55.37,59Z" transform="translate(-1.55 -35.94)"/><path class="cls-1" d="M101.05,60.34H81.86v9H70.75V51.86H89.94V48.42H70.71V39.67h30.34Zm-6.68,3.2a106.14,106.14,0,0,0,12.45-1.3l1.37,8.89a134.48,134.48,0,0,1-13.57,1.44q-7,.39-17.89.39h-6V63.82h6Q88.11,63.82,94.37,63.54Zm27.78,36.84H77.81V77h44.34Zm-33.23-9h22.19V85.93H88.92Zm33.23-16.77H110.83V36.08h11.32Z" transform="translate(-1.55 -35.94)"/><path class="cls-1" d="M163.26,55.19a30.91,30.91,0,0,1-10.2,11.53A52.09,52.09,0,0,1,136.44,74L132,65a43.49,43.49,0,0,0,12.62-4.74,22.27,22.27,0,0,0,7.52-6.86,14.92,14.92,0,0,0,2.46-8.22V39.56H166.7A34.23,34.23,0,0,1,163.26,55.19Zm-1.62-6.81H135.42V39.56h26.22Zm23.52,52H141.81V74.08h43.35ZM153,91.59h21.06V83.08H153ZM185.16,71.9H173.84v-36h11.32Zm8.12-13.53H182V49.16h11.32Z" transform="translate(-1.55 -35.94)"/><path class="cls-1" d="M219.91,67.56A37.7,37.7,0,0,1,214,80.5,25.43,25.43,0,0,1,203.67,89l-6.51-8.85a24.22,24.22,0,0,0,9.09-7,29.17,29.17,0,0,0,5-9.78,39.08,39.08,0,0,0,1.56-11.05V46.73h8.93v5.49A61.87,61.87,0,0,1,219.91,67.56Zm16.45-16.4H199.94V42h36.42ZM225.75,62.45a26.72,26.72,0,0,0,4.94,9.26,24.42,24.42,0,0,0,8.84,6.77l-6.19,8.79a24.88,24.88,0,0,1-10.2-8.16,37.26,37.26,0,0,1-5.9-12.37,54.54,54.54,0,0,1-1.9-14.52V46.73h8.89v5.49A35.26,35.26,0,0,0,225.75,62.45ZM250.85,101H239.53v-65h11.32Zm8.82-31.75H248.39V59.88h11.28Z" transform="translate(-1.55 -35.94)"/><path class="cls-1" d="M297.83,67.44H278.7V80.59H267.52V58.72h19.06V50.07H267.49V41h30.34Zm-9.42,9.39a123.94,123.94,0,0,0,13.36-1.45l1,8.9A138.81,138.81,0,0,1,288.81,86c-4.67.32-9.89.47-15.66.42h-5.63V77.11h5.63Q281.73,77.17,288.41,76.83Zm28.26,24.36H305.53V35.94h11.14ZM325.5,69H314.21V59.7H325.5Z" transform="translate(-1.55 -35.94)"/><path class="cls-1" d="M344.92,52.18h-3.59V81.57H331.1V43.29h13.82Zm-5.1,24.58a36.86,36.86,0,0,0,4.92-.71l.71,9.21A48.1,48.1,0,0,1,340,86c-1.65.12-3.5.15-5.54.11H331.1V76.9h3.34C336.57,76.9,338.37,76.85,339.82,76.76Zm21.8-24.58h-4.4V81.82H347.06V43.29h14.56Zm-5.28,24.63q2.64-.23,5.81-.72l.7,9.14a42.25,42.25,0,0,1-5.57.74q-2.52.14-6.81.14h-3.41V77h3.41Q353.71,77,356.34,76.81Zm14.56-8.7H359.44V59H370.9ZM375,98.27H364.68V36.75H375ZM388.13,101H377.54v-65h10.59Z" transform="translate(-1.55 -35.94)"/><path class="cls-1" d="M402.38,93.82a6.75,6.75,0,0,1-2.48-2.47,6.69,6.69,0,0,1-.9-3.41,6.65,6.65,0,0,1,3.38-5.79,6.81,6.81,0,0,1,3.44-.89,6.5,6.5,0,0,1,3.34.89,7.2,7.2,0,0,1,2.52,2.45,6.2,6.2,0,0,1,1,3.34,6.37,6.37,0,0,1-1,3.41,7.53,7.53,0,0,1-2.52,2.47,6.36,6.36,0,0,1-3.34.94A6.66,6.66,0,0,1,402.38,93.82Z" transform="translate(-1.55 -35.94)"/></g></g></svg>